<mxfile host="app.diagrams.net" modified="2024-06-28T10:29:58.234Z" agent="Mozilla/5.0 (Windows NT 10.0; Win64; x64; rv:127.0) Gecko/20100101 Firefox/127.0" etag="cXqB6zQAYwIh7d4Ul1bq" version="24.6.3" type="device">
  <diagram id="C5RBs43oDa-KdzZeNtuy" name="Page-1">
    <mxGraphModel dx="1035" dy="565" grid="1" gridSize="10" guides="1" tooltips="1" connect="1" arrows="1" fold="1" page="1" pageScale="1" pageWidth="827" pageHeight="1169" math="0" shadow="0">
      <root>
        <mxCell id="WIyWlLk6GJQsqaUBKTNV-0" />
        <mxCell id="WIyWlLk6GJQsqaUBKTNV-1" parent="WIyWlLk6GJQsqaUBKTNV-0" />
        <mxCell id="_3EE8X__OzSHqQlS0Vvo-11" value="Register" style="shape=table;startSize=30;container=1;collapsible=0;childLayout=tableLayout;fontSize=18;" parent="WIyWlLk6GJQsqaUBKTNV-1" vertex="1">
          <mxGeometry x="29" y="120" width="770" height="840" as="geometry" />
        </mxCell>
        <mxCell id="_3EE8X__OzSHqQlS0Vvo-12" value="" style="shape=tableRow;horizontal=0;startSize=0;swimlaneHead=0;swimlaneBody=0;strokeColor=inherit;top=0;left=0;bottom=0;right=0;collapsible=0;dropTarget=0;fillColor=none;points=[[0,0.5],[1,0.5]];portConstraint=eastwest;" parent="_3EE8X__OzSHqQlS0Vvo-11" vertex="1">
          <mxGeometry y="30" width="770" height="810" as="geometry" />
        </mxCell>
        <mxCell id="_3EE8X__OzSHqQlS0Vvo-13" value="" style="shape=partialRectangle;html=1;whiteSpace=wrap;connectable=0;strokeColor=inherit;overflow=hidden;fillColor=none;top=0;left=0;bottom=0;right=0;pointerEvents=1;" parent="_3EE8X__OzSHqQlS0Vvo-12" vertex="1">
          <mxGeometry width="770" height="810" as="geometry">
            <mxRectangle width="770" height="810" as="alternateBounds" />
          </mxGeometry>
        </mxCell>
        <mxCell id="_3EE8X__OzSHqQlS0Vvo-14" value="&lt;div&gt;&lt;font style=&quot;font-size: 24px;&quot;&gt;&lt;u&gt;tech stack&lt;/u&gt;&lt;/font&gt;&lt;/div&gt;&lt;div&gt;&lt;font style=&quot;font-size: 24px;&quot;&gt;next js - tailwind - postgres - jwt - pubnub&lt;/font&gt;&lt;br&gt;&lt;/div&gt;" style="rounded=0;whiteSpace=wrap;html=1;" parent="WIyWlLk6GJQsqaUBKTNV-1" vertex="1">
          <mxGeometry x="29" y="20" width="771" height="70" as="geometry" />
        </mxCell>
        <mxCell id="an1uXyHyDIEqWNbMvVYi-3" value="" style="edgeStyle=orthogonalEdgeStyle;rounded=0;orthogonalLoop=1;jettySize=auto;html=1;strokeWidth=3;" parent="WIyWlLk6GJQsqaUBKTNV-1" source="_3EE8X__OzSHqQlS0Vvo-15" target="an1uXyHyDIEqWNbMvVYi-1" edge="1">
          <mxGeometry relative="1" as="geometry" />
        </mxCell>
        <mxCell id="_3EE8X__OzSHqQlS0Vvo-15" value="&lt;font size=&quot;3&quot;&gt;START&lt;/font&gt;" style="strokeWidth=2;html=1;shape=mxgraph.flowchart.terminator;whiteSpace=wrap;" parent="WIyWlLk6GJQsqaUBKTNV-1" vertex="1">
          <mxGeometry x="364" y="170" width="100" height="60" as="geometry" />
        </mxCell>
        <mxCell id="_3EE8X__OzSHqQlS0Vvo-19" value="" style="edgeStyle=orthogonalEdgeStyle;rounded=0;orthogonalLoop=1;jettySize=auto;html=1;strokeWidth=3;" parent="WIyWlLk6GJQsqaUBKTNV-1" source="_3EE8X__OzSHqQlS0Vvo-16" target="_3EE8X__OzSHqQlS0Vvo-18" edge="1">
          <mxGeometry relative="1" as="geometry" />
        </mxCell>
        <mxCell id="_3EE8X__OzSHqQlS0Vvo-16" value="&lt;div style=&quot;padding-top: 0px; padding-left: 0px; padding-right: 0px;&quot; align=&quot;center&quot;&gt;&lt;font style=&quot;font-size: 16px;&quot;&gt;input username, display_name, password&lt;/font&gt;&lt;/div&gt;" style="shape=parallelogram;strokeWidth=2;perimeter=parallelogramPerimeter;rounded=1;arcSize=12;size=0.23;fixedWidth=0;autosize=0;expand=1;whiteSpace=wrap;html=1;align=center;labelBorderColor=none;textShadow=0;labelBackgroundColor=none;spacingLeft=0;spacingRight=0;spacing=32;" parent="WIyWlLk6GJQsqaUBKTNV-1" vertex="1">
          <mxGeometry x="324.5" y="372.5" width="180" height="90" as="geometry" />
        </mxCell>
        <mxCell id="_3EE8X__OzSHqQlS0Vvo-21" value="" style="edgeStyle=orthogonalEdgeStyle;rounded=0;orthogonalLoop=1;jettySize=auto;html=1;strokeWidth=3;" parent="WIyWlLk6GJQsqaUBKTNV-1" source="_3EE8X__OzSHqQlS0Vvo-18" target="_3EE8X__OzSHqQlS0Vvo-20" edge="1">
          <mxGeometry relative="1" as="geometry" />
        </mxCell>
        <mxCell id="_3EE8X__OzSHqQlS0Vvo-18" value="&lt;font size=&quot;3&quot;&gt;&lt;b&gt;client&lt;/b&gt;&lt;br&gt;filter the inputs (length &amp;amp; regex)&lt;/font&gt;" style="rounded=1;whiteSpace=wrap;html=1;absoluteArcSize=1;arcSize=14;strokeWidth=2;labelBorderColor=none;" parent="WIyWlLk6GJQsqaUBKTNV-1" vertex="1">
          <mxGeometry x="57.75" y="367.5" width="190" height="100" as="geometry" />
        </mxCell>
        <mxCell id="_3EE8X__OzSHqQlS0Vvo-23" value="" style="edgeStyle=orthogonalEdgeStyle;rounded=0;orthogonalLoop=1;jettySize=auto;html=1;strokeWidth=3;" parent="WIyWlLk6GJQsqaUBKTNV-1" source="_3EE8X__OzSHqQlS0Vvo-20" target="_3EE8X__OzSHqQlS0Vvo-22" edge="1">
          <mxGeometry relative="1" as="geometry" />
        </mxCell>
        <mxCell id="_3EE8X__OzSHqQlS0Vvo-20" value="&lt;font size=&quot;3&quot;&gt;send payload to server&lt;br&gt;(is_login, display_name, username, password)&lt;br&gt;&lt;/font&gt;" style="rounded=1;whiteSpace=wrap;html=1;absoluteArcSize=1;arcSize=14;strokeWidth=2;labelBorderColor=none;" parent="WIyWlLk6GJQsqaUBKTNV-1" vertex="1">
          <mxGeometry x="56.75" y="525" width="190" height="100" as="geometry" />
        </mxCell>
        <mxCell id="_3EE8X__OzSHqQlS0Vvo-31" value="" style="edgeStyle=orthogonalEdgeStyle;rounded=0;orthogonalLoop=1;jettySize=auto;html=1;strokeWidth=3;" parent="WIyWlLk6GJQsqaUBKTNV-1" source="_3EE8X__OzSHqQlS0Vvo-22" target="_3EE8X__OzSHqQlS0Vvo-30" edge="1">
          <mxGeometry relative="1" as="geometry" />
        </mxCell>
        <mxCell id="_3EE8X__OzSHqQlS0Vvo-22" value="&lt;font size=&quot;3&quot;&gt;&lt;b&gt;server&lt;/b&gt;&lt;br&gt;filter the payload (num of inputs, typeof, length, regex)&lt;br&gt;&lt;/font&gt;" style="rounded=1;whiteSpace=wrap;html=1;absoluteArcSize=1;arcSize=14;strokeWidth=2;labelBorderColor=none;" parent="WIyWlLk6GJQsqaUBKTNV-1" vertex="1">
          <mxGeometry x="57.75" y="670" width="190" height="100" as="geometry" />
        </mxCell>
        <mxCell id="_3EE8X__OzSHqQlS0Vvo-27" value="" style="edgeStyle=orthogonalEdgeStyle;rounded=0;orthogonalLoop=1;jettySize=auto;html=1;strokeWidth=3;" parent="WIyWlLk6GJQsqaUBKTNV-1" source="_3EE8X__OzSHqQlS0Vvo-24" target="_3EE8X__OzSHqQlS0Vvo-26" edge="1">
          <mxGeometry relative="1" as="geometry" />
        </mxCell>
        <mxCell id="_3EE8X__OzSHqQlS0Vvo-42" value="" style="edgeStyle=orthogonalEdgeStyle;rounded=0;orthogonalLoop=1;jettySize=auto;html=1;strokeWidth=3;" parent="WIyWlLk6GJQsqaUBKTNV-1" source="_3EE8X__OzSHqQlS0Vvo-24" target="_3EE8X__OzSHqQlS0Vvo-41" edge="1">
          <mxGeometry relative="1" as="geometry" />
        </mxCell>
        <mxCell id="_3EE8X__OzSHqQlS0Vvo-24" value="&lt;font size=&quot;3&quot;&gt;store to database&lt;br&gt;&lt;/font&gt;" style="rounded=1;whiteSpace=wrap;html=1;absoluteArcSize=1;arcSize=14;strokeWidth=2;labelBorderColor=none;" parent="WIyWlLk6GJQsqaUBKTNV-1" vertex="1">
          <mxGeometry x="269" y="835" width="190" height="100" as="geometry" />
        </mxCell>
        <mxCell id="_3EE8X__OzSHqQlS0Vvo-26" value="&lt;p style=&quot;line-height: 120%; padding-bottom: 0px; margin-top: 0px; margin-bottom: 20px;&quot;&gt;&lt;font size=&quot;3&quot;&gt;users &amp;amp; profiles&lt;br&gt;&lt;/font&gt;&lt;/p&gt;" style="strokeWidth=2;html=1;shape=mxgraph.flowchart.merge_or_storage;whiteSpace=wrap;labelBorderColor=none;spacing=22;verticalAlign=middle;horizontal=1;labelPosition=center;verticalLabelPosition=middle;align=center;" parent="WIyWlLk6GJQsqaUBKTNV-1" vertex="1">
          <mxGeometry x="80" y="845" width="130" height="80" as="geometry" />
        </mxCell>
        <mxCell id="_3EE8X__OzSHqQlS0Vvo-32" value="" style="edgeStyle=orthogonalEdgeStyle;rounded=0;orthogonalLoop=1;jettySize=auto;html=1;strokeWidth=3;" parent="WIyWlLk6GJQsqaUBKTNV-1" source="_3EE8X__OzSHqQlS0Vvo-30" target="_3EE8X__OzSHqQlS0Vvo-24" edge="1">
          <mxGeometry relative="1" as="geometry" />
        </mxCell>
        <mxCell id="_3EE8X__OzSHqQlS0Vvo-34" value="&lt;font style=&quot;font-size: 18px;&quot;&gt;YES&lt;/font&gt;" style="edgeLabel;html=1;align=center;verticalAlign=middle;resizable=0;points=[];" parent="_3EE8X__OzSHqQlS0Vvo-32" vertex="1" connectable="0">
          <mxGeometry x="-0.0169" relative="1" as="geometry">
            <mxPoint x="1" y="-9" as="offset" />
          </mxGeometry>
        </mxCell>
        <mxCell id="_3EE8X__OzSHqQlS0Vvo-39" value="" style="edgeStyle=orthogonalEdgeStyle;rounded=0;orthogonalLoop=1;jettySize=auto;html=1;strokeWidth=3;" parent="WIyWlLk6GJQsqaUBKTNV-1" source="_3EE8X__OzSHqQlS0Vvo-30" target="_3EE8X__OzSHqQlS0Vvo-38" edge="1">
          <mxGeometry relative="1" as="geometry" />
        </mxCell>
        <mxCell id="_3EE8X__OzSHqQlS0Vvo-40" value="&lt;font style=&quot;font-size: 18px;&quot;&gt;NO&lt;/font&gt;" style="edgeLabel;html=1;align=center;verticalAlign=middle;resizable=0;points=[];" parent="_3EE8X__OzSHqQlS0Vvo-39" vertex="1" connectable="0">
          <mxGeometry x="-0.2315" relative="1" as="geometry">
            <mxPoint as="offset" />
          </mxGeometry>
        </mxCell>
        <mxCell id="_3EE8X__OzSHqQlS0Vvo-30" value="&lt;font size=&quot;3&quot;&gt;filter success?&lt;/font&gt;" style="strokeWidth=2;html=1;shape=mxgraph.flowchart.decision;whiteSpace=wrap;spacing=22;" parent="WIyWlLk6GJQsqaUBKTNV-1" vertex="1">
          <mxGeometry x="306.63" y="660" width="116.75" height="120" as="geometry" />
        </mxCell>
        <mxCell id="_3EE8X__OzSHqQlS0Vvo-43" value="" style="edgeStyle=orthogonalEdgeStyle;rounded=0;orthogonalLoop=1;jettySize=auto;html=1;strokeWidth=3;" parent="WIyWlLk6GJQsqaUBKTNV-1" source="_3EE8X__OzSHqQlS0Vvo-38" target="_3EE8X__OzSHqQlS0Vvo-16" edge="1">
          <mxGeometry relative="1" as="geometry">
            <Array as="points">
              <mxPoint x="365" y="500" />
              <mxPoint x="413" y="500" />
            </Array>
          </mxGeometry>
        </mxCell>
        <mxCell id="_3EE8X__OzSHqQlS0Vvo-38" value="&lt;font size=&quot;3&quot;&gt;&lt;b&gt;client&lt;/b&gt;&lt;br&gt;display error message&lt;br&gt;&lt;/font&gt;" style="strokeWidth=2;html=1;shape=mxgraph.flowchart.display;whiteSpace=wrap;labelBorderColor=none;spacing=22;" parent="WIyWlLk6GJQsqaUBKTNV-1" vertex="1">
          <mxGeometry x="280" y="520" width="170" height="90" as="geometry" />
        </mxCell>
        <mxCell id="G7jmCf8zDLp_H4D1jOkU-4" value="" style="edgeStyle=orthogonalEdgeStyle;rounded=0;orthogonalLoop=1;jettySize=auto;html=1;strokeWidth=3;" parent="WIyWlLk6GJQsqaUBKTNV-1" source="_3EE8X__OzSHqQlS0Vvo-41" target="G7jmCf8zDLp_H4D1jOkU-3" edge="1">
          <mxGeometry relative="1" as="geometry">
            <Array as="points">
              <mxPoint x="830" y="885" />
              <mxPoint x="830" y="230" />
            </Array>
          </mxGeometry>
        </mxCell>
        <mxCell id="_3EE8X__OzSHqQlS0Vvo-41" value="&lt;font size=&quot;3&quot;&gt;&lt;b&gt;client&lt;/b&gt;&lt;br&gt;display success message&lt;br&gt;&lt;/font&gt;" style="strokeWidth=2;html=1;shape=mxgraph.flowchart.display;whiteSpace=wrap;labelBorderColor=none;spacing=22;" parent="WIyWlLk6GJQsqaUBKTNV-1" vertex="1">
          <mxGeometry x="592.75" y="840" width="170" height="90" as="geometry" />
        </mxCell>
        <mxCell id="G7jmCf8zDLp_H4D1jOkU-0" value="Login" style="shape=table;startSize=30;container=1;collapsible=0;childLayout=tableLayout;fontSize=18;" parent="WIyWlLk6GJQsqaUBKTNV-1" vertex="1">
          <mxGeometry x="856" y="120" width="770" height="840" as="geometry" />
        </mxCell>
        <mxCell id="G7jmCf8zDLp_H4D1jOkU-1" value="" style="shape=tableRow;horizontal=0;startSize=0;swimlaneHead=0;swimlaneBody=0;strokeColor=inherit;top=0;left=0;bottom=0;right=0;collapsible=0;dropTarget=0;fillColor=none;points=[[0,0.5],[1,0.5]];portConstraint=eastwest;" parent="G7jmCf8zDLp_H4D1jOkU-0" vertex="1">
          <mxGeometry y="30" width="770" height="810" as="geometry" />
        </mxCell>
        <mxCell id="G7jmCf8zDLp_H4D1jOkU-2" value="" style="shape=partialRectangle;html=1;whiteSpace=wrap;connectable=0;strokeColor=inherit;overflow=hidden;fillColor=none;top=0;left=0;bottom=0;right=0;pointerEvents=1;" parent="G7jmCf8zDLp_H4D1jOkU-1" vertex="1">
          <mxGeometry width="770" height="810" as="geometry">
            <mxRectangle width="770" height="810" as="alternateBounds" />
          </mxGeometry>
        </mxCell>
        <mxCell id="G7jmCf8zDLp_H4D1jOkU-6" value="" style="edgeStyle=orthogonalEdgeStyle;rounded=0;orthogonalLoop=1;jettySize=auto;html=1;strokeWidth=3;" parent="WIyWlLk6GJQsqaUBKTNV-1" source="G7jmCf8zDLp_H4D1jOkU-3" target="G7jmCf8zDLp_H4D1jOkU-5" edge="1">
          <mxGeometry relative="1" as="geometry" />
        </mxCell>
        <mxCell id="G7jmCf8zDLp_H4D1jOkU-3" value="&lt;div style=&quot;padding-top: 0px; padding-left: 0px; padding-right: 0px;&quot; align=&quot;center&quot;&gt;&lt;font style=&quot;font-size: 16px;&quot;&gt;input username, password&lt;/font&gt;&lt;/div&gt;" style="shape=parallelogram;strokeWidth=2;perimeter=parallelogramPerimeter;rounded=1;arcSize=12;size=0.23;fixedWidth=0;autosize=0;expand=1;whiteSpace=wrap;html=1;align=center;labelBorderColor=none;textShadow=0;labelBackgroundColor=none;spacingLeft=0;spacingRight=0;spacing=32;" parent="WIyWlLk6GJQsqaUBKTNV-1" vertex="1">
          <mxGeometry x="900" y="185" width="180" height="90" as="geometry" />
        </mxCell>
        <mxCell id="G7jmCf8zDLp_H4D1jOkU-8" value="" style="edgeStyle=orthogonalEdgeStyle;rounded=0;orthogonalLoop=1;jettySize=auto;html=1;strokeWidth=3;" parent="WIyWlLk6GJQsqaUBKTNV-1" source="G7jmCf8zDLp_H4D1jOkU-5" target="G7jmCf8zDLp_H4D1jOkU-7" edge="1">
          <mxGeometry relative="1" as="geometry" />
        </mxCell>
        <mxCell id="G7jmCf8zDLp_H4D1jOkU-5" value="&lt;font size=&quot;3&quot;&gt;&lt;b&gt;client&lt;/b&gt;&lt;br&gt;filter the inputs (length &amp;amp; regex)&lt;/font&gt;" style="rounded=1;whiteSpace=wrap;html=1;absoluteArcSize=1;arcSize=14;strokeWidth=2;labelBorderColor=none;" parent="WIyWlLk6GJQsqaUBKTNV-1" vertex="1">
          <mxGeometry x="1146" y="180" width="190" height="100" as="geometry" />
        </mxCell>
        <mxCell id="G7jmCf8zDLp_H4D1jOkU-10" value="" style="edgeStyle=orthogonalEdgeStyle;rounded=0;orthogonalLoop=1;jettySize=auto;html=1;strokeWidth=3;" parent="WIyWlLk6GJQsqaUBKTNV-1" source="G7jmCf8zDLp_H4D1jOkU-7" target="G7jmCf8zDLp_H4D1jOkU-9" edge="1">
          <mxGeometry relative="1" as="geometry" />
        </mxCell>
        <mxCell id="G7jmCf8zDLp_H4D1jOkU-7" value="&lt;font size=&quot;3&quot;&gt;send payload to server&lt;br&gt;(username, password)&lt;br&gt;&lt;/font&gt;" style="rounded=1;whiteSpace=wrap;html=1;absoluteArcSize=1;arcSize=14;strokeWidth=2;labelBorderColor=none;" parent="WIyWlLk6GJQsqaUBKTNV-1" vertex="1">
          <mxGeometry x="1400" y="180" width="190" height="100" as="geometry" />
        </mxCell>
        <mxCell id="G7jmCf8zDLp_H4D1jOkU-12" value="" style="edgeStyle=orthogonalEdgeStyle;rounded=0;orthogonalLoop=1;jettySize=auto;html=1;strokeWidth=3;" parent="WIyWlLk6GJQsqaUBKTNV-1" source="G7jmCf8zDLp_H4D1jOkU-9" target="G7jmCf8zDLp_H4D1jOkU-11" edge="1">
          <mxGeometry relative="1" as="geometry" />
        </mxCell>
        <mxCell id="G7jmCf8zDLp_H4D1jOkU-9" value="&lt;font size=&quot;3&quot;&gt;&lt;b&gt;server&lt;/b&gt;&lt;br&gt;filter the payload (num of inputs, typeof, length, regex)&lt;br&gt;&lt;/font&gt;" style="rounded=1;whiteSpace=wrap;html=1;absoluteArcSize=1;arcSize=14;strokeWidth=2;labelBorderColor=none;" parent="WIyWlLk6GJQsqaUBKTNV-1" vertex="1">
          <mxGeometry x="1400" y="340" width="190" height="100" as="geometry" />
        </mxCell>
        <mxCell id="G7jmCf8zDLp_H4D1jOkU-14" value="" style="edgeStyle=orthogonalEdgeStyle;rounded=0;orthogonalLoop=1;jettySize=auto;html=1;strokeWidth=3;" parent="WIyWlLk6GJQsqaUBKTNV-1" source="G7jmCf8zDLp_H4D1jOkU-11" target="G7jmCf8zDLp_H4D1jOkU-13" edge="1">
          <mxGeometry relative="1" as="geometry" />
        </mxCell>
        <mxCell id="G7jmCf8zDLp_H4D1jOkU-16" value="&lt;font style=&quot;font-size: 18px;&quot;&gt;NO&lt;/font&gt;" style="edgeLabel;html=1;align=center;verticalAlign=middle;resizable=0;points=[];" parent="G7jmCf8zDLp_H4D1jOkU-14" vertex="1" connectable="0">
          <mxGeometry x="-0.1541" y="-4" relative="1" as="geometry">
            <mxPoint as="offset" />
          </mxGeometry>
        </mxCell>
        <mxCell id="G7jmCf8zDLp_H4D1jOkU-18" value="" style="edgeStyle=orthogonalEdgeStyle;rounded=0;orthogonalLoop=1;jettySize=auto;html=1;strokeWidth=3;" parent="WIyWlLk6GJQsqaUBKTNV-1" source="G7jmCf8zDLp_H4D1jOkU-11" target="G7jmCf8zDLp_H4D1jOkU-17" edge="1">
          <mxGeometry relative="1" as="geometry" />
        </mxCell>
        <mxCell id="G7jmCf8zDLp_H4D1jOkU-19" value="&lt;font style=&quot;font-size: 18px;&quot;&gt;YES&lt;/font&gt;" style="edgeLabel;html=1;align=center;verticalAlign=middle;resizable=0;points=[];" parent="G7jmCf8zDLp_H4D1jOkU-18" vertex="1" connectable="0">
          <mxGeometry x="-0.2255" y="-1" relative="1" as="geometry">
            <mxPoint as="offset" />
          </mxGeometry>
        </mxCell>
        <mxCell id="G7jmCf8zDLp_H4D1jOkU-11" value="&lt;font size=&quot;3&quot;&gt;filter success?&lt;/font&gt;" style="strokeWidth=2;html=1;shape=mxgraph.flowchart.decision;whiteSpace=wrap;" parent="WIyWlLk6GJQsqaUBKTNV-1" vertex="1">
          <mxGeometry x="1180" y="320" width="136" height="140" as="geometry" />
        </mxCell>
        <mxCell id="G7jmCf8zDLp_H4D1jOkU-15" value="" style="edgeStyle=orthogonalEdgeStyle;rounded=0;orthogonalLoop=1;jettySize=auto;html=1;strokeWidth=3;" parent="WIyWlLk6GJQsqaUBKTNV-1" source="G7jmCf8zDLp_H4D1jOkU-13" target="G7jmCf8zDLp_H4D1jOkU-3" edge="1">
          <mxGeometry relative="1" as="geometry" />
        </mxCell>
        <mxCell id="G7jmCf8zDLp_H4D1jOkU-13" value="&lt;font size=&quot;3&quot;&gt;&lt;b&gt;client&lt;/b&gt;&lt;br&gt;display error message&lt;br&gt;&lt;/font&gt;" style="strokeWidth=2;html=1;shape=mxgraph.flowchart.display;whiteSpace=wrap;labelBorderColor=none;spacing=22;" parent="WIyWlLk6GJQsqaUBKTNV-1" vertex="1">
          <mxGeometry x="905" y="345" width="170" height="90" as="geometry" />
        </mxCell>
        <mxCell id="G7jmCf8zDLp_H4D1jOkU-23" value="" style="edgeStyle=orthogonalEdgeStyle;rounded=0;orthogonalLoop=1;jettySize=auto;html=1;strokeWidth=3;" parent="WIyWlLk6GJQsqaUBKTNV-1" source="G7jmCf8zDLp_H4D1jOkU-17" target="G7jmCf8zDLp_H4D1jOkU-22" edge="1">
          <mxGeometry relative="1" as="geometry" />
        </mxCell>
        <mxCell id="G7jmCf8zDLp_H4D1jOkU-17" value="&lt;font size=&quot;3&quot;&gt;get user data from database (by username)&lt;br&gt;&lt;/font&gt;" style="rounded=1;whiteSpace=wrap;html=1;absoluteArcSize=1;arcSize=14;strokeWidth=2;labelBorderColor=none;" parent="WIyWlLk6GJQsqaUBKTNV-1" vertex="1">
          <mxGeometry x="1153" y="520" width="190" height="100" as="geometry" />
        </mxCell>
        <mxCell id="G7jmCf8zDLp_H4D1jOkU-21" value="" style="edgeStyle=orthogonalEdgeStyle;rounded=0;orthogonalLoop=1;jettySize=auto;html=1;strokeWidth=3;" parent="WIyWlLk6GJQsqaUBKTNV-1" source="G7jmCf8zDLp_H4D1jOkU-20" target="G7jmCf8zDLp_H4D1jOkU-17" edge="1">
          <mxGeometry relative="1" as="geometry" />
        </mxCell>
        <mxCell id="G7jmCf8zDLp_H4D1jOkU-20" value="&lt;p style=&quot;line-height: 120%; padding-bottom: 0px; margin-top: 0px; margin-bottom: 20px;&quot;&gt;&lt;font size=&quot;3&quot;&gt;users&lt;br&gt;&lt;/font&gt;&lt;/p&gt;" style="strokeWidth=2;html=1;shape=mxgraph.flowchart.merge_or_storage;whiteSpace=wrap;labelBorderColor=none;spacing=22;verticalAlign=middle;horizontal=1;labelPosition=center;verticalLabelPosition=middle;align=center;" parent="WIyWlLk6GJQsqaUBKTNV-1" vertex="1">
          <mxGeometry x="1430" y="470" width="130" height="80" as="geometry" />
        </mxCell>
        <mxCell id="G7jmCf8zDLp_H4D1jOkU-25" value="" style="edgeStyle=orthogonalEdgeStyle;rounded=0;orthogonalLoop=1;jettySize=auto;html=1;strokeWidth=3;" parent="WIyWlLk6GJQsqaUBKTNV-1" source="G7jmCf8zDLp_H4D1jOkU-22" target="G7jmCf8zDLp_H4D1jOkU-24" edge="1">
          <mxGeometry relative="1" as="geometry" />
        </mxCell>
        <mxCell id="G7jmCf8zDLp_H4D1jOkU-22" value="&lt;font size=&quot;3&quot;&gt;match user password&lt;br&gt;&lt;/font&gt;" style="rounded=1;whiteSpace=wrap;html=1;absoluteArcSize=1;arcSize=14;strokeWidth=2;labelBorderColor=none;" parent="WIyWlLk6GJQsqaUBKTNV-1" vertex="1">
          <mxGeometry x="1153" y="660" width="190" height="100" as="geometry" />
        </mxCell>
        <mxCell id="G7jmCf8zDLp_H4D1jOkU-26" value="" style="edgeStyle=orthogonalEdgeStyle;rounded=0;orthogonalLoop=1;jettySize=auto;html=1;strokeWidth=3;" parent="WIyWlLk6GJQsqaUBKTNV-1" source="G7jmCf8zDLp_H4D1jOkU-24" target="G7jmCf8zDLp_H4D1jOkU-13" edge="1">
          <mxGeometry relative="1" as="geometry" />
        </mxCell>
        <mxCell id="G7jmCf8zDLp_H4D1jOkU-27" value="&lt;font style=&quot;font-size: 18px;&quot;&gt;NO&lt;/font&gt;" style="edgeLabel;html=1;align=center;verticalAlign=middle;resizable=0;points=[];" parent="G7jmCf8zDLp_H4D1jOkU-26" vertex="1" connectable="0">
          <mxGeometry x="-0.572" y="-1" relative="1" as="geometry">
            <mxPoint as="offset" />
          </mxGeometry>
        </mxCell>
        <mxCell id="G7jmCf8zDLp_H4D1jOkU-34" value="" style="edgeStyle=orthogonalEdgeStyle;rounded=0;orthogonalLoop=1;jettySize=auto;html=1;strokeWidth=3;" parent="WIyWlLk6GJQsqaUBKTNV-1" source="G7jmCf8zDLp_H4D1jOkU-24" target="G7jmCf8zDLp_H4D1jOkU-33" edge="1">
          <mxGeometry relative="1" as="geometry">
            <Array as="points">
              <mxPoint x="990" y="800" />
              <mxPoint x="1248" y="800" />
            </Array>
          </mxGeometry>
        </mxCell>
        <mxCell id="G7jmCf8zDLp_H4D1jOkU-35" value="&lt;font style=&quot;font-size: 18px;&quot;&gt;YES&lt;/font&gt;" style="edgeLabel;html=1;align=center;verticalAlign=middle;resizable=0;points=[];" parent="G7jmCf8zDLp_H4D1jOkU-34" vertex="1" connectable="0">
          <mxGeometry x="-0.2255" relative="1" as="geometry">
            <mxPoint x="-64" as="offset" />
          </mxGeometry>
        </mxCell>
        <mxCell id="G7jmCf8zDLp_H4D1jOkU-24" value="&lt;font size=&quot;3&quot;&gt;is password match?&lt;br&gt;&lt;/font&gt;" style="strokeWidth=2;html=1;shape=mxgraph.flowchart.decision;whiteSpace=wrap;" parent="WIyWlLk6GJQsqaUBKTNV-1" vertex="1">
          <mxGeometry x="922" y="640" width="136" height="140" as="geometry" />
        </mxCell>
        <mxCell id="G7jmCf8zDLp_H4D1jOkU-43" value="" style="edgeStyle=orthogonalEdgeStyle;rounded=0;orthogonalLoop=1;jettySize=auto;html=1;strokeWidth=3;" parent="WIyWlLk6GJQsqaUBKTNV-1" source="G7jmCf8zDLp_H4D1jOkU-33" target="G7jmCf8zDLp_H4D1jOkU-42" edge="1">
          <mxGeometry relative="1" as="geometry" />
        </mxCell>
        <mxCell id="G7jmCf8zDLp_H4D1jOkU-33" value="&lt;font size=&quot;3&quot;&gt;get user profile data from database (by user_id)&lt;br&gt;&lt;/font&gt;" style="rounded=1;whiteSpace=wrap;html=1;absoluteArcSize=1;arcSize=14;strokeWidth=2;labelBorderColor=none;" parent="WIyWlLk6GJQsqaUBKTNV-1" vertex="1">
          <mxGeometry x="1153" y="840" width="190" height="100" as="geometry" />
        </mxCell>
        <mxCell id="G7jmCf8zDLp_H4D1jOkU-37" value="" style="edgeStyle=orthogonalEdgeStyle;rounded=0;orthogonalLoop=1;jettySize=auto;html=1;strokeWidth=3;" parent="WIyWlLk6GJQsqaUBKTNV-1" source="G7jmCf8zDLp_H4D1jOkU-36" target="G7jmCf8zDLp_H4D1jOkU-33" edge="1">
          <mxGeometry relative="1" as="geometry" />
        </mxCell>
        <mxCell id="G7jmCf8zDLp_H4D1jOkU-36" value="&lt;p style=&quot;line-height: 120%; padding-bottom: 0px; margin-top: 0px; margin-bottom: 20px;&quot;&gt;&lt;font size=&quot;3&quot;&gt;users &amp;amp; profiles&lt;br&gt;&lt;/font&gt;&lt;/p&gt;" style="strokeWidth=2;html=1;shape=mxgraph.flowchart.merge_or_storage;whiteSpace=wrap;labelBorderColor=none;spacing=22;verticalAlign=middle;horizontal=1;labelPosition=center;verticalLabelPosition=middle;align=center;" parent="WIyWlLk6GJQsqaUBKTNV-1" vertex="1">
          <mxGeometry x="960" y="850" width="130" height="80" as="geometry" />
        </mxCell>
        <mxCell id="FTuvNDVsQv9sABHEffth-39" value="" style="edgeStyle=orthogonalEdgeStyle;rounded=0;orthogonalLoop=1;jettySize=auto;html=1;strokeWidth=3;" parent="WIyWlLk6GJQsqaUBKTNV-1" source="G7jmCf8zDLp_H4D1jOkU-38" target="FTuvNDVsQv9sABHEffth-6" edge="1">
          <mxGeometry relative="1" as="geometry">
            <Array as="points">
              <mxPoint x="1650" y="735" />
              <mxPoint x="1650" y="220" />
            </Array>
          </mxGeometry>
        </mxCell>
        <mxCell id="FTuvNDVsQv9sABHEffth-102" value="" style="edgeStyle=orthogonalEdgeStyle;rounded=0;orthogonalLoop=1;jettySize=auto;html=1;strokeWidth=3;" parent="WIyWlLk6GJQsqaUBKTNV-1" source="G7jmCf8zDLp_H4D1jOkU-38" target="FTuvNDVsQv9sABHEffth-101" edge="1">
          <mxGeometry relative="1" as="geometry" />
        </mxCell>
        <mxCell id="G7jmCf8zDLp_H4D1jOkU-38" value="&lt;font size=&quot;3&quot;&gt;&lt;b&gt;client&lt;/b&gt;&lt;br&gt;display success message&lt;br&gt;&lt;/font&gt;" style="strokeWidth=2;html=1;shape=mxgraph.flowchart.display;whiteSpace=wrap;labelBorderColor=none;spacing=22;" parent="WIyWlLk6GJQsqaUBKTNV-1" vertex="1">
          <mxGeometry x="1410" y="690" width="170" height="90" as="geometry" />
        </mxCell>
        <mxCell id="G7jmCf8zDLp_H4D1jOkU-40" value="&lt;div&gt;&lt;font style=&quot;font-size: 24px;&quot;&gt;&lt;u&gt;flow list&lt;br&gt;&lt;/u&gt;&lt;/font&gt;&lt;/div&gt;&lt;div&gt;&lt;font style=&quot;font-size: 24px;&quot;&gt;register - login - logout - search user - direct chat - create group &amp;amp; chat&lt;/font&gt;&lt;br&gt;&lt;/div&gt;" style="rounded=0;whiteSpace=wrap;html=1;" parent="WIyWlLk6GJQsqaUBKTNV-1" vertex="1">
          <mxGeometry x="856" y="20" width="771" height="70" as="geometry" />
        </mxCell>
        <mxCell id="G7jmCf8zDLp_H4D1jOkU-44" value="" style="edgeStyle=orthogonalEdgeStyle;rounded=0;orthogonalLoop=1;jettySize=auto;html=1;strokeWidth=3;" parent="WIyWlLk6GJQsqaUBKTNV-1" source="G7jmCf8zDLp_H4D1jOkU-42" target="G7jmCf8zDLp_H4D1jOkU-38" edge="1">
          <mxGeometry relative="1" as="geometry" />
        </mxCell>
        <mxCell id="G7jmCf8zDLp_H4D1jOkU-42" value="&lt;font size=&quot;3&quot;&gt;&lt;b&gt;server&lt;/b&gt;&lt;br&gt;create access &amp;amp; refresh token (JWT)&lt;br&gt;&lt;/font&gt;" style="rounded=1;whiteSpace=wrap;html=1;absoluteArcSize=1;arcSize=14;strokeWidth=2;labelBorderColor=none;" parent="WIyWlLk6GJQsqaUBKTNV-1" vertex="1">
          <mxGeometry x="1400" y="840" width="190" height="100" as="geometry" />
        </mxCell>
        <mxCell id="G7jmCf8zDLp_H4D1jOkU-45" value="Logout" style="shape=table;startSize=30;container=1;collapsible=0;childLayout=tableLayout;fontSize=18;" parent="WIyWlLk6GJQsqaUBKTNV-1" vertex="1">
          <mxGeometry x="2509" y="120" width="770" height="840" as="geometry" />
        </mxCell>
        <mxCell id="G7jmCf8zDLp_H4D1jOkU-46" value="" style="shape=tableRow;horizontal=0;startSize=0;swimlaneHead=0;swimlaneBody=0;strokeColor=inherit;top=0;left=0;bottom=0;right=0;collapsible=0;dropTarget=0;fillColor=none;points=[[0,0.5],[1,0.5]];portConstraint=eastwest;" parent="G7jmCf8zDLp_H4D1jOkU-45" vertex="1">
          <mxGeometry y="30" width="770" height="810" as="geometry" />
        </mxCell>
        <mxCell id="G7jmCf8zDLp_H4D1jOkU-47" value="" style="shape=partialRectangle;html=1;whiteSpace=wrap;connectable=0;strokeColor=inherit;overflow=hidden;fillColor=none;top=0;left=0;bottom=0;right=0;pointerEvents=1;" parent="G7jmCf8zDLp_H4D1jOkU-46" vertex="1">
          <mxGeometry width="770" height="810" as="geometry">
            <mxRectangle width="770" height="810" as="alternateBounds" />
          </mxGeometry>
        </mxCell>
        <mxCell id="G7jmCf8zDLp_H4D1jOkU-51" value="" style="edgeStyle=orthogonalEdgeStyle;rounded=0;orthogonalLoop=1;jettySize=auto;html=1;strokeWidth=3;" parent="WIyWlLk6GJQsqaUBKTNV-1" source="G7jmCf8zDLp_H4D1jOkU-48" target="G7jmCf8zDLp_H4D1jOkU-50" edge="1">
          <mxGeometry relative="1" as="geometry" />
        </mxCell>
        <mxCell id="G7jmCf8zDLp_H4D1jOkU-48" value="&lt;div style=&quot;padding-top: 0px; padding-left: 0px; padding-right: 0px;&quot; align=&quot;center&quot;&gt;&lt;font style=&quot;font-size: 16px;&quot;&gt;click logout button&lt;br&gt;&lt;/font&gt;&lt;/div&gt;" style="shape=parallelogram;strokeWidth=2;perimeter=parallelogramPerimeter;rounded=1;arcSize=12;size=0.23;fixedWidth=0;autosize=0;expand=1;whiteSpace=wrap;html=1;align=center;labelBorderColor=none;textShadow=0;labelBackgroundColor=none;spacingLeft=0;spacingRight=0;spacing=32;" parent="WIyWlLk6GJQsqaUBKTNV-1" vertex="1">
          <mxGeometry x="2550" y="265" width="180" height="90" as="geometry" />
        </mxCell>
        <mxCell id="G7jmCf8zDLp_H4D1jOkU-53" value="" style="edgeStyle=orthogonalEdgeStyle;rounded=0;orthogonalLoop=1;jettySize=auto;html=1;strokeWidth=3;" parent="WIyWlLk6GJQsqaUBKTNV-1" source="G7jmCf8zDLp_H4D1jOkU-50" target="G7jmCf8zDLp_H4D1jOkU-52" edge="1">
          <mxGeometry relative="1" as="geometry" />
        </mxCell>
        <mxCell id="G7jmCf8zDLp_H4D1jOkU-50" value="&lt;font size=&quot;3&quot;&gt;send header (access token) to server&lt;br&gt;&lt;/font&gt;" style="rounded=1;whiteSpace=wrap;html=1;absoluteArcSize=1;arcSize=14;strokeWidth=2;labelBorderColor=none;" parent="WIyWlLk6GJQsqaUBKTNV-1" vertex="1">
          <mxGeometry x="2793" y="260" width="190" height="100" as="geometry" />
        </mxCell>
        <mxCell id="G7jmCf8zDLp_H4D1jOkU-55" value="" style="edgeStyle=orthogonalEdgeStyle;rounded=0;orthogonalLoop=1;jettySize=auto;html=1;strokeWidth=3;" parent="WIyWlLk6GJQsqaUBKTNV-1" source="G7jmCf8zDLp_H4D1jOkU-52" target="G7jmCf8zDLp_H4D1jOkU-54" edge="1">
          <mxGeometry relative="1" as="geometry" />
        </mxCell>
        <mxCell id="G7jmCf8zDLp_H4D1jOkU-52" value="&lt;font size=&quot;3&quot;&gt;&lt;b&gt;server&lt;/b&gt;&lt;br&gt;verify access token&lt;br&gt;&lt;/font&gt;" style="rounded=1;whiteSpace=wrap;html=1;absoluteArcSize=1;arcSize=14;strokeWidth=2;labelBorderColor=none;" parent="WIyWlLk6GJQsqaUBKTNV-1" vertex="1">
          <mxGeometry x="3066" y="260" width="190" height="100" as="geometry" />
        </mxCell>
        <mxCell id="G7jmCf8zDLp_H4D1jOkU-61" value="" style="edgeStyle=orthogonalEdgeStyle;rounded=0;orthogonalLoop=1;jettySize=auto;html=1;strokeWidth=3;" parent="WIyWlLk6GJQsqaUBKTNV-1" source="G7jmCf8zDLp_H4D1jOkU-54" target="G7jmCf8zDLp_H4D1jOkU-59" edge="1">
          <mxGeometry relative="1" as="geometry" />
        </mxCell>
        <mxCell id="G7jmCf8zDLp_H4D1jOkU-66" value="&lt;font style=&quot;font-size: 18px;&quot;&gt;YES&lt;/font&gt;" style="edgeLabel;html=1;align=center;verticalAlign=middle;resizable=0;points=[];" parent="G7jmCf8zDLp_H4D1jOkU-61" vertex="1" connectable="0">
          <mxGeometry x="-0.1439" y="-1" relative="1" as="geometry">
            <mxPoint as="offset" />
          </mxGeometry>
        </mxCell>
        <mxCell id="an1uXyHyDIEqWNbMvVYi-27" value="" style="edgeStyle=orthogonalEdgeStyle;rounded=0;orthogonalLoop=1;jettySize=auto;html=1;strokeWidth=3;" parent="WIyWlLk6GJQsqaUBKTNV-1" source="G7jmCf8zDLp_H4D1jOkU-54" target="G7jmCf8zDLp_H4D1jOkU-65" edge="1">
          <mxGeometry relative="1" as="geometry" />
        </mxCell>
        <mxCell id="an1uXyHyDIEqWNbMvVYi-35" value="&lt;font style=&quot;font-size: 18px;&quot;&gt;NO&lt;/font&gt;" style="edgeLabel;html=1;align=center;verticalAlign=middle;resizable=0;points=[];" parent="an1uXyHyDIEqWNbMvVYi-27" vertex="1" connectable="0">
          <mxGeometry x="-0.6214" relative="1" as="geometry">
            <mxPoint as="offset" />
          </mxGeometry>
        </mxCell>
        <mxCell id="G7jmCf8zDLp_H4D1jOkU-54" value="&lt;font size=&quot;3&quot;&gt;expired?&lt;/font&gt;" style="strokeWidth=2;html=1;shape=mxgraph.flowchart.decision;whiteSpace=wrap;" parent="WIyWlLk6GJQsqaUBKTNV-1" vertex="1">
          <mxGeometry x="3093" y="400" width="136" height="140" as="geometry" />
        </mxCell>
        <mxCell id="an1uXyHyDIEqWNbMvVYi-28" value="" style="edgeStyle=orthogonalEdgeStyle;rounded=0;orthogonalLoop=1;jettySize=auto;html=1;strokeWidth=3;" parent="WIyWlLk6GJQsqaUBKTNV-1" source="G7jmCf8zDLp_H4D1jOkU-59" target="an1uXyHyDIEqWNbMvVYi-24" edge="1">
          <mxGeometry relative="1" as="geometry" />
        </mxCell>
        <mxCell id="G7jmCf8zDLp_H4D1jOkU-59" value="&lt;font size=&quot;3&quot;&gt;verify refresh token&lt;br&gt;&lt;/font&gt;" style="rounded=1;whiteSpace=wrap;html=1;absoluteArcSize=1;arcSize=14;strokeWidth=2;labelBorderColor=none;" parent="WIyWlLk6GJQsqaUBKTNV-1" vertex="1">
          <mxGeometry x="3066" y="610" width="190" height="100" as="geometry" />
        </mxCell>
        <mxCell id="G7jmCf8zDLp_H4D1jOkU-71" value="" style="edgeStyle=orthogonalEdgeStyle;rounded=0;orthogonalLoop=1;jettySize=auto;html=1;strokeWidth=3;" parent="WIyWlLk6GJQsqaUBKTNV-1" source="G7jmCf8zDLp_H4D1jOkU-65" target="G7jmCf8zDLp_H4D1jOkU-70" edge="1">
          <mxGeometry relative="1" as="geometry" />
        </mxCell>
        <mxCell id="G7jmCf8zDLp_H4D1jOkU-65" value="&lt;font size=&quot;3&quot;&gt;&lt;b&gt;server&lt;/b&gt;&lt;br&gt;delete refresh token&lt;br&gt;&lt;/font&gt;" style="rounded=1;whiteSpace=wrap;html=1;absoluteArcSize=1;arcSize=14;strokeWidth=2;labelBorderColor=none;" parent="WIyWlLk6GJQsqaUBKTNV-1" vertex="1">
          <mxGeometry x="2550" y="420" width="190" height="100" as="geometry" />
        </mxCell>
        <mxCell id="FTuvNDVsQv9sABHEffth-99" value="" style="edgeStyle=orthogonalEdgeStyle;rounded=0;orthogonalLoop=1;jettySize=auto;html=1;strokeWidth=3;" parent="WIyWlLk6GJQsqaUBKTNV-1" source="G7jmCf8zDLp_H4D1jOkU-68" target="FTuvNDVsQv9sABHEffth-98" edge="1">
          <mxGeometry relative="1" as="geometry" />
        </mxCell>
        <mxCell id="G7jmCf8zDLp_H4D1jOkU-68" value="&lt;font size=&quot;3&quot;&gt;&lt;b&gt;client&lt;/b&gt;&lt;br&gt;display success message&lt;br&gt;&lt;/font&gt;" style="strokeWidth=2;html=1;shape=mxgraph.flowchart.display;whiteSpace=wrap;labelBorderColor=none;spacing=22;" parent="WIyWlLk6GJQsqaUBKTNV-1" vertex="1">
          <mxGeometry x="2560" y="845" width="170" height="90" as="geometry" />
        </mxCell>
        <mxCell id="G7jmCf8zDLp_H4D1jOkU-72" value="" style="edgeStyle=orthogonalEdgeStyle;rounded=0;orthogonalLoop=1;jettySize=auto;html=1;strokeWidth=3;" parent="WIyWlLk6GJQsqaUBKTNV-1" source="G7jmCf8zDLp_H4D1jOkU-70" target="G7jmCf8zDLp_H4D1jOkU-68" edge="1">
          <mxGeometry relative="1" as="geometry" />
        </mxCell>
        <mxCell id="G7jmCf8zDLp_H4D1jOkU-70" value="&lt;font size=&quot;3&quot;&gt;&lt;b&gt;client&lt;/b&gt;&lt;br&gt;delete access token&lt;br&gt;&lt;/font&gt;" style="rounded=1;whiteSpace=wrap;html=1;absoluteArcSize=1;arcSize=14;strokeWidth=2;labelBorderColor=none;" parent="WIyWlLk6GJQsqaUBKTNV-1" vertex="1">
          <mxGeometry x="2550" y="630" width="190" height="100" as="geometry" />
        </mxCell>
        <mxCell id="FTuvNDVsQv9sABHEffth-0" value="Search User" style="shape=table;startSize=30;container=1;collapsible=0;childLayout=tableLayout;fontSize=18;" parent="WIyWlLk6GJQsqaUBKTNV-1" vertex="1">
          <mxGeometry x="1683" y="120" width="770" height="840" as="geometry" />
        </mxCell>
        <mxCell id="FTuvNDVsQv9sABHEffth-1" value="" style="shape=tableRow;horizontal=0;startSize=0;swimlaneHead=0;swimlaneBody=0;strokeColor=inherit;top=0;left=0;bottom=0;right=0;collapsible=0;dropTarget=0;fillColor=none;points=[[0,0.5],[1,0.5]];portConstraint=eastwest;" parent="FTuvNDVsQv9sABHEffth-0" vertex="1">
          <mxGeometry y="30" width="770" height="810" as="geometry" />
        </mxCell>
        <mxCell id="FTuvNDVsQv9sABHEffth-2" value="" style="shape=partialRectangle;html=1;whiteSpace=wrap;connectable=0;strokeColor=inherit;overflow=hidden;fillColor=none;top=0;left=0;bottom=0;right=0;pointerEvents=1;" parent="FTuvNDVsQv9sABHEffth-1" vertex="1">
          <mxGeometry width="770" height="810" as="geometry">
            <mxRectangle width="770" height="810" as="alternateBounds" />
          </mxGeometry>
        </mxCell>
        <mxCell id="FTuvNDVsQv9sABHEffth-10" value="" style="edgeStyle=orthogonalEdgeStyle;rounded=0;orthogonalLoop=1;jettySize=auto;html=1;strokeWidth=3;" parent="WIyWlLk6GJQsqaUBKTNV-1" source="FTuvNDVsQv9sABHEffth-6" target="FTuvNDVsQv9sABHEffth-8" edge="1">
          <mxGeometry relative="1" as="geometry" />
        </mxCell>
        <mxCell id="FTuvNDVsQv9sABHEffth-6" value="&lt;div style=&quot;padding-top: 0px; padding-left: 0px; padding-right: 0px;&quot; align=&quot;center&quot;&gt;&lt;font style=&quot;font-size: 16px;&quot;&gt;input username (atleast 3 char)&lt;br&gt;&lt;/font&gt;&lt;/div&gt;" style="shape=parallelogram;strokeWidth=2;perimeter=parallelogramPerimeter;rounded=1;arcSize=12;size=0.23;fixedWidth=0;autosize=0;expand=1;whiteSpace=wrap;html=1;align=center;labelBorderColor=none;textShadow=0;labelBackgroundColor=none;spacingLeft=0;spacingRight=0;spacing=32;" parent="WIyWlLk6GJQsqaUBKTNV-1" vertex="1">
          <mxGeometry x="1723" y="175" width="190" height="90" as="geometry" />
        </mxCell>
        <mxCell id="FTuvNDVsQv9sABHEffth-12" value="" style="edgeStyle=orthogonalEdgeStyle;rounded=0;orthogonalLoop=1;jettySize=auto;html=1;strokeWidth=3;" parent="WIyWlLk6GJQsqaUBKTNV-1" source="FTuvNDVsQv9sABHEffth-8" target="FTuvNDVsQv9sABHEffth-11" edge="1">
          <mxGeometry relative="1" as="geometry" />
        </mxCell>
        <mxCell id="FTuvNDVsQv9sABHEffth-8" value="&lt;font size=&quot;3&quot;&gt;&lt;b&gt;client&lt;/b&gt;&lt;br&gt;filter the inputs (length &amp;amp; regex)&lt;/font&gt;" style="rounded=1;whiteSpace=wrap;html=1;absoluteArcSize=1;arcSize=14;strokeWidth=2;labelBorderColor=none;" parent="WIyWlLk6GJQsqaUBKTNV-1" vertex="1">
          <mxGeometry x="1973" y="170" width="190" height="100" as="geometry" />
        </mxCell>
        <mxCell id="FTuvNDVsQv9sABHEffth-17" value="" style="edgeStyle=orthogonalEdgeStyle;rounded=0;orthogonalLoop=1;jettySize=auto;html=1;strokeWidth=3;" parent="WIyWlLk6GJQsqaUBKTNV-1" source="FTuvNDVsQv9sABHEffth-11" target="FTuvNDVsQv9sABHEffth-14" edge="1">
          <mxGeometry relative="1" as="geometry" />
        </mxCell>
        <mxCell id="FTuvNDVsQv9sABHEffth-11" value="&lt;font size=&quot;3&quot;&gt;send payload to server&lt;br&gt;(display_name)&lt;br&gt;&lt;/font&gt;" style="rounded=1;whiteSpace=wrap;html=1;absoluteArcSize=1;arcSize=14;strokeWidth=2;labelBorderColor=none;" parent="WIyWlLk6GJQsqaUBKTNV-1" vertex="1">
          <mxGeometry x="2243" y="170" width="190" height="100" as="geometry" />
        </mxCell>
        <mxCell id="FTuvNDVsQv9sABHEffth-18" value="" style="edgeStyle=orthogonalEdgeStyle;rounded=0;orthogonalLoop=1;jettySize=auto;html=1;strokeWidth=3;" parent="WIyWlLk6GJQsqaUBKTNV-1" source="FTuvNDVsQv9sABHEffth-14" target="FTuvNDVsQv9sABHEffth-15" edge="1">
          <mxGeometry relative="1" as="geometry" />
        </mxCell>
        <mxCell id="FTuvNDVsQv9sABHEffth-14" value="&lt;font size=&quot;3&quot;&gt;&lt;b&gt;server&lt;/b&gt;&lt;br&gt;filter the payload (num of inputs, typeof, length, regex)&lt;br&gt;&lt;/font&gt;" style="rounded=1;whiteSpace=wrap;html=1;absoluteArcSize=1;arcSize=14;strokeWidth=2;labelBorderColor=none;" parent="WIyWlLk6GJQsqaUBKTNV-1" vertex="1">
          <mxGeometry x="2243" y="360" width="190" height="100" as="geometry" />
        </mxCell>
        <mxCell id="FTuvNDVsQv9sABHEffth-19" value="" style="edgeStyle=orthogonalEdgeStyle;rounded=0;orthogonalLoop=1;jettySize=auto;html=1;strokeWidth=3;" parent="WIyWlLk6GJQsqaUBKTNV-1" source="FTuvNDVsQv9sABHEffth-15" target="FTuvNDVsQv9sABHEffth-16" edge="1">
          <mxGeometry relative="1" as="geometry" />
        </mxCell>
        <mxCell id="FTuvNDVsQv9sABHEffth-23" value="&lt;font style=&quot;font-size: 18px;&quot;&gt;NO&lt;/font&gt;" style="edgeLabel;html=1;align=center;verticalAlign=middle;resizable=0;points=[];" parent="FTuvNDVsQv9sABHEffth-19" vertex="1" connectable="0">
          <mxGeometry x="-0.1821" relative="1" as="geometry">
            <mxPoint x="-1" as="offset" />
          </mxGeometry>
        </mxCell>
        <mxCell id="FTuvNDVsQv9sABHEffth-27" value="" style="edgeStyle=orthogonalEdgeStyle;rounded=0;orthogonalLoop=1;jettySize=auto;html=1;strokeWidth=3;" parent="WIyWlLk6GJQsqaUBKTNV-1" source="FTuvNDVsQv9sABHEffth-15" target="FTuvNDVsQv9sABHEffth-26" edge="1">
          <mxGeometry relative="1" as="geometry" />
        </mxCell>
        <mxCell id="FTuvNDVsQv9sABHEffth-28" value="&lt;font style=&quot;font-size: 18px;&quot;&gt;YES&lt;/font&gt;" style="edgeLabel;html=1;align=center;verticalAlign=middle;resizable=0;points=[];" parent="FTuvNDVsQv9sABHEffth-27" vertex="1" connectable="0">
          <mxGeometry x="-0.2647" y="1" relative="1" as="geometry">
            <mxPoint as="offset" />
          </mxGeometry>
        </mxCell>
        <mxCell id="FTuvNDVsQv9sABHEffth-15" value="&lt;font size=&quot;3&quot;&gt;filter success?&lt;/font&gt;" style="strokeWidth=2;html=1;shape=mxgraph.flowchart.decision;whiteSpace=wrap;" parent="WIyWlLk6GJQsqaUBKTNV-1" vertex="1">
          <mxGeometry x="2000" y="340" width="136" height="140" as="geometry" />
        </mxCell>
        <mxCell id="FTuvNDVsQv9sABHEffth-25" value="" style="edgeStyle=orthogonalEdgeStyle;rounded=0;orthogonalLoop=1;jettySize=auto;html=1;strokeWidth=3;" parent="WIyWlLk6GJQsqaUBKTNV-1" source="FTuvNDVsQv9sABHEffth-16" target="FTuvNDVsQv9sABHEffth-6" edge="1">
          <mxGeometry relative="1" as="geometry" />
        </mxCell>
        <mxCell id="FTuvNDVsQv9sABHEffth-16" value="&lt;font size=&quot;3&quot;&gt;&lt;b&gt;client&lt;/b&gt;&lt;br&gt;display error message&lt;br&gt;&lt;/font&gt;" style="strokeWidth=2;html=1;shape=mxgraph.flowchart.display;whiteSpace=wrap;labelBorderColor=none;spacing=22;" parent="WIyWlLk6GJQsqaUBKTNV-1" vertex="1">
          <mxGeometry x="1733" y="365" width="170" height="90" as="geometry" />
        </mxCell>
        <mxCell id="FTuvNDVsQv9sABHEffth-33" value="" style="edgeStyle=orthogonalEdgeStyle;rounded=0;orthogonalLoop=1;jettySize=auto;html=1;strokeWidth=3;" parent="WIyWlLk6GJQsqaUBKTNV-1" source="FTuvNDVsQv9sABHEffth-26" target="FTuvNDVsQv9sABHEffth-31" edge="1">
          <mxGeometry relative="1" as="geometry" />
        </mxCell>
        <mxCell id="FTuvNDVsQv9sABHEffth-26" value="&lt;font size=&quot;3&quot;&gt;get users data from database &lt;br&gt;(by ILIKE display_name)&lt;br&gt;&lt;/font&gt;" style="rounded=1;whiteSpace=wrap;html=1;absoluteArcSize=1;arcSize=14;strokeWidth=2;labelBorderColor=none;" parent="WIyWlLk6GJQsqaUBKTNV-1" vertex="1">
          <mxGeometry x="1973" y="550" width="190" height="100" as="geometry" />
        </mxCell>
        <mxCell id="FTuvNDVsQv9sABHEffth-30" value="" style="edgeStyle=orthogonalEdgeStyle;rounded=0;orthogonalLoop=1;jettySize=auto;html=1;strokeWidth=3;" parent="WIyWlLk6GJQsqaUBKTNV-1" source="FTuvNDVsQv9sABHEffth-29" target="FTuvNDVsQv9sABHEffth-26" edge="1">
          <mxGeometry relative="1" as="geometry" />
        </mxCell>
        <mxCell id="FTuvNDVsQv9sABHEffth-29" value="&lt;p style=&quot;line-height: 120%; padding-bottom: 0px; margin-top: 0px; margin-bottom: 20px;&quot;&gt;&lt;font size=&quot;3&quot;&gt;users join profiles&lt;br&gt;&lt;/font&gt;&lt;/p&gt;" style="strokeWidth=2;html=1;shape=mxgraph.flowchart.merge_or_storage;whiteSpace=wrap;labelBorderColor=none;spacing=22;verticalAlign=middle;horizontal=1;labelPosition=center;verticalLabelPosition=middle;align=center;" parent="WIyWlLk6GJQsqaUBKTNV-1" vertex="1">
          <mxGeometry x="2233" y="560" width="130" height="80" as="geometry" />
        </mxCell>
        <mxCell id="FTuvNDVsQv9sABHEffth-38" value="" style="edgeStyle=orthogonalEdgeStyle;rounded=0;orthogonalLoop=1;jettySize=auto;html=1;strokeWidth=3;" parent="WIyWlLk6GJQsqaUBKTNV-1" source="FTuvNDVsQv9sABHEffth-31" target="FTuvNDVsQv9sABHEffth-37" edge="1">
          <mxGeometry relative="1" as="geometry" />
        </mxCell>
        <mxCell id="FTuvNDVsQv9sABHEffth-31" value="&lt;font size=&quot;3&quot;&gt;&lt;b&gt;client&lt;/b&gt;&lt;br&gt;display success message&lt;br&gt;&lt;/font&gt;" style="strokeWidth=2;html=1;shape=mxgraph.flowchart.display;whiteSpace=wrap;labelBorderColor=none;spacing=22;" parent="WIyWlLk6GJQsqaUBKTNV-1" vertex="1">
          <mxGeometry x="1723" y="555" width="170" height="90" as="geometry" />
        </mxCell>
        <mxCell id="FTuvNDVsQv9sABHEffth-34" value="Direct Chat" style="shape=table;startSize=30;container=1;collapsible=0;childLayout=tableLayout;fontSize=18;" parent="WIyWlLk6GJQsqaUBKTNV-1" vertex="1">
          <mxGeometry x="29" y="1110" width="770" height="1200" as="geometry" />
        </mxCell>
        <mxCell id="FTuvNDVsQv9sABHEffth-35" value="" style="shape=tableRow;horizontal=0;startSize=0;swimlaneHead=0;swimlaneBody=0;strokeColor=inherit;top=0;left=0;bottom=0;right=0;collapsible=0;dropTarget=0;fillColor=none;points=[[0,0.5],[1,0.5]];portConstraint=eastwest;" parent="FTuvNDVsQv9sABHEffth-34" vertex="1">
          <mxGeometry y="30" width="770" height="1170" as="geometry" />
        </mxCell>
        <mxCell id="FTuvNDVsQv9sABHEffth-36" value="" style="shape=partialRectangle;html=1;whiteSpace=wrap;connectable=0;strokeColor=inherit;overflow=hidden;fillColor=none;top=0;left=0;bottom=0;right=0;pointerEvents=1;" parent="FTuvNDVsQv9sABHEffth-35" vertex="1">
          <mxGeometry width="770" height="1170" as="geometry">
            <mxRectangle width="770" height="1170" as="alternateBounds" />
          </mxGeometry>
        </mxCell>
        <mxCell id="FTuvNDVsQv9sABHEffth-37" value="&lt;font style=&quot;font-size: 24px;&quot;&gt;A&lt;/font&gt;" style="ellipse;whiteSpace=wrap;html=1;aspect=fixed;strokeWidth=2;" parent="WIyWlLk6GJQsqaUBKTNV-1" vertex="1">
          <mxGeometry x="1778" y="690" width="60" height="60" as="geometry" />
        </mxCell>
        <mxCell id="FTuvNDVsQv9sABHEffth-46" value="" style="edgeStyle=orthogonalEdgeStyle;rounded=0;orthogonalLoop=1;jettySize=auto;html=1;strokeWidth=3;" parent="WIyWlLk6GJQsqaUBKTNV-1" source="FTuvNDVsQv9sABHEffth-40" target="FTuvNDVsQv9sABHEffth-45" edge="1">
          <mxGeometry relative="1" as="geometry" />
        </mxCell>
        <mxCell id="FTuvNDVsQv9sABHEffth-40" value="&lt;font style=&quot;font-size: 24px;&quot;&gt;A&lt;/font&gt;" style="ellipse;whiteSpace=wrap;html=1;aspect=fixed;strokeWidth=2;" parent="WIyWlLk6GJQsqaUBKTNV-1" vertex="1">
          <mxGeometry x="59" y="1190" width="60" height="60" as="geometry" />
        </mxCell>
        <mxCell id="FTuvNDVsQv9sABHEffth-41" value="&lt;div&gt;&lt;font style=&quot;font-size: 24px;&quot;&gt;&lt;u&gt;tech stack&lt;/u&gt;&lt;/font&gt;&lt;/div&gt;&lt;div&gt;&lt;font style=&quot;font-size: 24px;&quot;&gt;next js - tailwind - postgres - jwt - pubnub&lt;/font&gt;&lt;br&gt;&lt;/div&gt;" style="rounded=0;whiteSpace=wrap;html=1;" parent="WIyWlLk6GJQsqaUBKTNV-1" vertex="1">
          <mxGeometry x="1681" y="20" width="771" height="70" as="geometry" />
        </mxCell>
        <mxCell id="FTuvNDVsQv9sABHEffth-42" value="&lt;div&gt;&lt;font style=&quot;font-size: 24px;&quot;&gt;&lt;u&gt;flow list&lt;br&gt;&lt;/u&gt;&lt;/font&gt;&lt;/div&gt;&lt;div&gt;&lt;font style=&quot;font-size: 24px;&quot;&gt;register - login - logout - search user - direct chat - create group &amp;amp; chat&lt;/font&gt;&lt;br&gt;&lt;/div&gt;" style="rounded=0;whiteSpace=wrap;html=1;" parent="WIyWlLk6GJQsqaUBKTNV-1" vertex="1">
          <mxGeometry x="2508" y="20" width="771" height="70" as="geometry" />
        </mxCell>
        <mxCell id="FTuvNDVsQv9sABHEffth-43" value="&lt;div&gt;&lt;font style=&quot;font-size: 24px;&quot;&gt;&lt;u&gt;tech stack&lt;/u&gt;&lt;/font&gt;&lt;/div&gt;&lt;div&gt;&lt;font style=&quot;font-size: 24px;&quot;&gt;next js - tailwind - postgres - jwt - pubnub&lt;/font&gt;&lt;br&gt;&lt;/div&gt;" style="rounded=0;whiteSpace=wrap;html=1;" parent="WIyWlLk6GJQsqaUBKTNV-1" vertex="1">
          <mxGeometry x="29" y="1000" width="771" height="70" as="geometry" />
        </mxCell>
        <mxCell id="FTuvNDVsQv9sABHEffth-44" value="&lt;div&gt;&lt;font style=&quot;font-size: 24px;&quot;&gt;&lt;u&gt;flow list&lt;br&gt;&lt;/u&gt;&lt;/font&gt;&lt;/div&gt;&lt;div&gt;&lt;font style=&quot;font-size: 24px;&quot;&gt;register - login - logout - search user - direct chat - create group &amp;amp; chat&lt;/font&gt;&lt;br&gt;&lt;/div&gt;" style="rounded=0;whiteSpace=wrap;html=1;" parent="WIyWlLk6GJQsqaUBKTNV-1" vertex="1">
          <mxGeometry x="856" y="1000" width="771" height="70" as="geometry" />
        </mxCell>
        <mxCell id="FTuvNDVsQv9sABHEffth-75" value="" style="edgeStyle=orthogonalEdgeStyle;rounded=0;orthogonalLoop=1;jettySize=auto;html=1;strokeWidth=3;" parent="WIyWlLk6GJQsqaUBKTNV-1" source="FTuvNDVsQv9sABHEffth-45" target="FTuvNDVsQv9sABHEffth-74" edge="1">
          <mxGeometry relative="1" as="geometry" />
        </mxCell>
        <mxCell id="FTuvNDVsQv9sABHEffth-45" value="&lt;div style=&quot;padding-top: 0px; padding-left: 0px; padding-right: 0px;&quot; align=&quot;center&quot;&gt;&lt;font style=&quot;font-size: 16px;&quot;&gt;select user to chat with&lt;br&gt;&lt;/font&gt;&lt;/div&gt;" style="shape=parallelogram;strokeWidth=2;perimeter=parallelogramPerimeter;rounded=1;arcSize=12;size=0.23;fixedWidth=0;autosize=0;expand=1;whiteSpace=wrap;html=1;align=center;labelBorderColor=none;textShadow=0;labelBackgroundColor=none;spacingLeft=0;spacingRight=0;spacing=32;" parent="WIyWlLk6GJQsqaUBKTNV-1" vertex="1">
          <mxGeometry x="150" y="1175" width="180" height="90" as="geometry" />
        </mxCell>
        <mxCell id="FTuvNDVsQv9sABHEffth-50" value="" style="edgeStyle=orthogonalEdgeStyle;rounded=0;orthogonalLoop=1;jettySize=auto;html=1;strokeWidth=3;" parent="WIyWlLk6GJQsqaUBKTNV-1" source="FTuvNDVsQv9sABHEffth-47" target="FTuvNDVsQv9sABHEffth-49" edge="1">
          <mxGeometry relative="1" as="geometry" />
        </mxCell>
        <mxCell id="FTuvNDVsQv9sABHEffth-47" value="&lt;font size=&quot;3&quot;&gt;&lt;b&gt;client&lt;/b&gt;&lt;br&gt;display chat box&lt;br&gt;&lt;/font&gt;" style="strokeWidth=2;html=1;shape=mxgraph.flowchart.display;whiteSpace=wrap;labelBorderColor=none;spacing=22;" parent="WIyWlLk6GJQsqaUBKTNV-1" vertex="1">
          <mxGeometry x="610" y="1175" width="170" height="90" as="geometry" />
        </mxCell>
        <mxCell id="FTuvNDVsQv9sABHEffth-53" value="" style="edgeStyle=orthogonalEdgeStyle;rounded=0;orthogonalLoop=1;jettySize=auto;html=1;strokeWidth=3;" parent="WIyWlLk6GJQsqaUBKTNV-1" source="FTuvNDVsQv9sABHEffth-49" target="FTuvNDVsQv9sABHEffth-51" edge="1">
          <mxGeometry relative="1" as="geometry" />
        </mxCell>
        <mxCell id="FTuvNDVsQv9sABHEffth-49" value="&lt;div style=&quot;padding-top: 0px; padding-left: 0px; padding-right: 0px;&quot; align=&quot;center&quot;&gt;&lt;font style=&quot;font-size: 16px;&quot;&gt;type message, then click send&lt;br&gt;&lt;/font&gt;&lt;/div&gt;" style="shape=parallelogram;strokeWidth=2;perimeter=parallelogramPerimeter;rounded=1;arcSize=12;size=0.23;fixedWidth=0;autosize=0;expand=1;whiteSpace=wrap;html=1;align=center;labelBorderColor=none;textShadow=0;labelBackgroundColor=none;spacingLeft=0;spacingRight=0;spacing=32;" parent="WIyWlLk6GJQsqaUBKTNV-1" vertex="1">
          <mxGeometry x="605" y="1330" width="180" height="90" as="geometry" />
        </mxCell>
        <mxCell id="FTuvNDVsQv9sABHEffth-58" value="" style="edgeStyle=orthogonalEdgeStyle;rounded=0;orthogonalLoop=1;jettySize=auto;html=1;strokeWidth=3;" parent="WIyWlLk6GJQsqaUBKTNV-1" source="FTuvNDVsQv9sABHEffth-51" target="FTuvNDVsQv9sABHEffth-57" edge="1">
          <mxGeometry relative="1" as="geometry" />
        </mxCell>
        <mxCell id="FTuvNDVsQv9sABHEffth-51" value="&lt;font size=&quot;3&quot;&gt;&lt;b&gt;client&lt;/b&gt;&lt;br&gt;filter the inputs (length &amp;amp; regex)&lt;/font&gt;" style="rounded=1;whiteSpace=wrap;html=1;absoluteArcSize=1;arcSize=14;strokeWidth=2;labelBorderColor=none;" parent="WIyWlLk6GJQsqaUBKTNV-1" vertex="1">
          <mxGeometry x="340" y="1325" width="190" height="100" as="geometry" />
        </mxCell>
        <mxCell id="an1uXyHyDIEqWNbMvVYi-37" value="" style="edgeStyle=orthogonalEdgeStyle;rounded=0;orthogonalLoop=1;jettySize=auto;html=1;strokeWidth=3;" parent="WIyWlLk6GJQsqaUBKTNV-1" source="FTuvNDVsQv9sABHEffth-56" target="an1uXyHyDIEqWNbMvVYi-36" edge="1">
          <mxGeometry relative="1" as="geometry" />
        </mxCell>
        <mxCell id="FTuvNDVsQv9sABHEffth-56" value="&lt;font size=&quot;3&quot;&gt;send header (token) &amp;amp; payload to server&lt;br&gt;(user_from, user_to, message, time)&lt;br&gt;&lt;/font&gt;" style="rounded=1;whiteSpace=wrap;html=1;absoluteArcSize=1;arcSize=14;strokeWidth=2;labelBorderColor=none;" parent="WIyWlLk6GJQsqaUBKTNV-1" vertex="1">
          <mxGeometry x="70" y="1480" width="190" height="100" as="geometry" />
        </mxCell>
        <mxCell id="FTuvNDVsQv9sABHEffth-59" value="" style="edgeStyle=orthogonalEdgeStyle;rounded=0;orthogonalLoop=1;jettySize=auto;html=1;strokeWidth=3;" parent="WIyWlLk6GJQsqaUBKTNV-1" source="FTuvNDVsQv9sABHEffth-57" target="FTuvNDVsQv9sABHEffth-56" edge="1">
          <mxGeometry relative="1" as="geometry" />
        </mxCell>
        <mxCell id="FTuvNDVsQv9sABHEffth-57" value="&lt;font size=&quot;3&quot;&gt;&lt;b&gt;client&lt;/b&gt;&lt;br&gt;add the message to chat box&lt;br&gt;&lt;/font&gt;" style="strokeWidth=2;html=1;shape=mxgraph.flowchart.display;whiteSpace=wrap;labelBorderColor=none;spacing=22;" parent="WIyWlLk6GJQsqaUBKTNV-1" vertex="1">
          <mxGeometry x="80" y="1330" width="170" height="90" as="geometry" />
        </mxCell>
        <mxCell id="FTuvNDVsQv9sABHEffth-63" value="" style="edgeStyle=orthogonalEdgeStyle;rounded=0;orthogonalLoop=1;jettySize=auto;html=1;strokeWidth=3;" parent="WIyWlLk6GJQsqaUBKTNV-1" source="FTuvNDVsQv9sABHEffth-60" target="FTuvNDVsQv9sABHEffth-62" edge="1">
          <mxGeometry relative="1" as="geometry" />
        </mxCell>
        <mxCell id="FTuvNDVsQv9sABHEffth-60" value="&lt;font size=&quot;3&quot;&gt;&lt;b&gt;server&lt;/b&gt;&lt;br&gt;filter the payload (num of inputs, typeof, length, regex)&lt;br&gt;&lt;/font&gt;" style="rounded=1;whiteSpace=wrap;html=1;absoluteArcSize=1;arcSize=14;strokeWidth=2;labelBorderColor=none;" parent="WIyWlLk6GJQsqaUBKTNV-1" vertex="1">
          <mxGeometry x="335" y="1704" width="190" height="100" as="geometry" />
        </mxCell>
        <mxCell id="FTuvNDVsQv9sABHEffth-68" value="" style="edgeStyle=orthogonalEdgeStyle;rounded=0;orthogonalLoop=1;jettySize=auto;html=1;strokeWidth=3;" parent="WIyWlLk6GJQsqaUBKTNV-1" source="FTuvNDVsQv9sABHEffth-62" target="FTuvNDVsQv9sABHEffth-67" edge="1">
          <mxGeometry relative="1" as="geometry" />
        </mxCell>
        <mxCell id="FTuvNDVsQv9sABHEffth-69" value="&lt;font style=&quot;font-size: 18px;&quot;&gt;YES&lt;/font&gt;" style="edgeLabel;html=1;align=center;verticalAlign=middle;resizable=0;points=[];" parent="FTuvNDVsQv9sABHEffth-68" vertex="1" connectable="0">
          <mxGeometry x="-0.2843" y="1" relative="1" as="geometry">
            <mxPoint x="-1" y="-1" as="offset" />
          </mxGeometry>
        </mxCell>
        <mxCell id="FTuvNDVsQv9sABHEffth-62" value="&lt;font size=&quot;3&quot;&gt;filter success?&lt;/font&gt;" style="strokeWidth=2;html=1;shape=mxgraph.flowchart.decision;whiteSpace=wrap;" parent="WIyWlLk6GJQsqaUBKTNV-1" vertex="1">
          <mxGeometry x="362" y="1860" width="136" height="140" as="geometry" />
        </mxCell>
        <mxCell id="FTuvNDVsQv9sABHEffth-82" value="" style="edgeStyle=orthogonalEdgeStyle;rounded=0;orthogonalLoop=1;jettySize=auto;html=1;strokeWidth=3;" parent="WIyWlLk6GJQsqaUBKTNV-1" source="FTuvNDVsQv9sABHEffth-64" target="FTuvNDVsQv9sABHEffth-49" edge="1">
          <mxGeometry relative="1" as="geometry" />
        </mxCell>
        <mxCell id="FTuvNDVsQv9sABHEffth-64" value="&lt;font size=&quot;3&quot;&gt;&lt;b&gt;client&lt;/b&gt;&lt;br&gt;display error message&lt;br&gt;&lt;/font&gt;" style="strokeWidth=2;html=1;shape=mxgraph.flowchart.display;whiteSpace=wrap;labelBorderColor=none;spacing=22;" parent="WIyWlLk6GJQsqaUBKTNV-1" vertex="1">
          <mxGeometry x="610" y="1704" width="170" height="90" as="geometry" />
        </mxCell>
        <mxCell id="FTuvNDVsQv9sABHEffth-71" value="" style="edgeStyle=orthogonalEdgeStyle;rounded=0;orthogonalLoop=1;jettySize=auto;html=1;strokeWidth=3;" parent="WIyWlLk6GJQsqaUBKTNV-1" source="FTuvNDVsQv9sABHEffth-67" target="FTuvNDVsQv9sABHEffth-70" edge="1">
          <mxGeometry relative="1" as="geometry" />
        </mxCell>
        <mxCell id="FTuvNDVsQv9sABHEffth-73" value="" style="edgeStyle=orthogonalEdgeStyle;rounded=0;orthogonalLoop=1;jettySize=auto;html=1;strokeWidth=3;" parent="WIyWlLk6GJQsqaUBKTNV-1" source="FTuvNDVsQv9sABHEffth-67" target="FTuvNDVsQv9sABHEffth-72" edge="1">
          <mxGeometry relative="1" as="geometry" />
        </mxCell>
        <mxCell id="FTuvNDVsQv9sABHEffth-67" value="&lt;font size=&quot;3&quot;&gt;store to database&lt;br&gt;&lt;/font&gt;" style="rounded=1;whiteSpace=wrap;html=1;absoluteArcSize=1;arcSize=14;strokeWidth=2;labelBorderColor=none;" parent="WIyWlLk6GJQsqaUBKTNV-1" vertex="1">
          <mxGeometry x="70" y="1880" width="190" height="100" as="geometry" />
        </mxCell>
        <mxCell id="FTuvNDVsQv9sABHEffth-70" value="&lt;p style=&quot;line-height: 120%; padding-bottom: 0px; margin-top: 0px; margin-bottom: 20px;&quot;&gt;&lt;font size=&quot;3&quot;&gt;messages &amp;amp; direct chat&lt;br&gt;&lt;/font&gt;&lt;/p&gt;" style="strokeWidth=2;html=1;shape=mxgraph.flowchart.merge_or_storage;whiteSpace=wrap;labelBorderColor=none;spacing=22;verticalAlign=middle;horizontal=1;labelPosition=center;verticalLabelPosition=middle;align=center;" parent="WIyWlLk6GJQsqaUBKTNV-1" vertex="1">
          <mxGeometry x="100" y="1754" width="130" height="80" as="geometry" />
        </mxCell>
        <mxCell id="FTuvNDVsQv9sABHEffth-84" value="" style="edgeStyle=orthogonalEdgeStyle;rounded=0;orthogonalLoop=1;jettySize=auto;html=1;strokeWidth=3;" parent="WIyWlLk6GJQsqaUBKTNV-1" source="FTuvNDVsQv9sABHEffth-72" target="FTuvNDVsQv9sABHEffth-83" edge="1">
          <mxGeometry relative="1" as="geometry" />
        </mxCell>
        <mxCell id="FTuvNDVsQv9sABHEffth-72" value="&lt;font size=&quot;3&quot;&gt;&lt;b&gt;server&lt;/b&gt;&lt;br&gt;publish message with pubnub&lt;br&gt;&lt;/font&gt;" style="rounded=1;whiteSpace=wrap;html=1;absoluteArcSize=1;arcSize=14;strokeWidth=2;labelBorderColor=none;" parent="WIyWlLk6GJQsqaUBKTNV-1" vertex="1">
          <mxGeometry x="70" y="2040" width="190" height="100" as="geometry" />
        </mxCell>
        <mxCell id="FTuvNDVsQv9sABHEffth-77" value="" style="edgeStyle=orthogonalEdgeStyle;rounded=0;orthogonalLoop=1;jettySize=auto;html=1;strokeWidth=3;" parent="WIyWlLk6GJQsqaUBKTNV-1" source="FTuvNDVsQv9sABHEffth-74" target="FTuvNDVsQv9sABHEffth-47" edge="1">
          <mxGeometry relative="1" as="geometry" />
        </mxCell>
        <mxCell id="FTuvNDVsQv9sABHEffth-74" value="&lt;font size=&quot;3&quot;&gt;&lt;b&gt;client&lt;/b&gt;&lt;br&gt;subscribe to pubnub channel (your user_id)&lt;br&gt;&lt;/font&gt;" style="rounded=1;whiteSpace=wrap;html=1;absoluteArcSize=1;arcSize=14;strokeWidth=2;labelBorderColor=none;" parent="WIyWlLk6GJQsqaUBKTNV-1" vertex="1">
          <mxGeometry x="370" y="1170" width="190" height="100" as="geometry" />
        </mxCell>
        <mxCell id="FTuvNDVsQv9sABHEffth-89" value="" style="edgeStyle=orthogonalEdgeStyle;rounded=0;orthogonalLoop=1;jettySize=auto;html=1;strokeWidth=3;" parent="WIyWlLk6GJQsqaUBKTNV-1" source="FTuvNDVsQv9sABHEffth-78" target="FTuvNDVsQv9sABHEffth-88" edge="1">
          <mxGeometry relative="1" as="geometry" />
        </mxCell>
        <mxCell id="FTuvNDVsQv9sABHEffth-78" value="&lt;font size=&quot;3&quot;&gt;&lt;b&gt;client&lt;/b&gt;&lt;br&gt;display success message&lt;br&gt;&lt;/font&gt;" style="strokeWidth=2;html=1;shape=mxgraph.flowchart.display;whiteSpace=wrap;labelBorderColor=none;spacing=22;" parent="WIyWlLk6GJQsqaUBKTNV-1" vertex="1">
          <mxGeometry x="610" y="2190" width="170" height="90" as="geometry" />
        </mxCell>
        <mxCell id="FTuvNDVsQv9sABHEffth-86" value="" style="edgeStyle=orthogonalEdgeStyle;rounded=0;orthogonalLoop=1;jettySize=auto;html=1;strokeWidth=3;" parent="WIyWlLk6GJQsqaUBKTNV-1" source="FTuvNDVsQv9sABHEffth-83" target="FTuvNDVsQv9sABHEffth-85" edge="1">
          <mxGeometry relative="1" as="geometry" />
        </mxCell>
        <mxCell id="FTuvNDVsQv9sABHEffth-83" value="&lt;font size=&quot;3&quot;&gt;&lt;b&gt;client&lt;/b&gt;&lt;br&gt;listen to published message&lt;br&gt;&lt;/font&gt;" style="rounded=1;whiteSpace=wrap;html=1;absoluteArcSize=1;arcSize=14;strokeWidth=2;labelBorderColor=none;" parent="WIyWlLk6GJQsqaUBKTNV-1" vertex="1">
          <mxGeometry x="340" y="2040" width="190" height="100" as="geometry" />
        </mxCell>
        <mxCell id="FTuvNDVsQv9sABHEffth-87" value="" style="edgeStyle=orthogonalEdgeStyle;rounded=0;orthogonalLoop=1;jettySize=auto;html=1;strokeWidth=3;" parent="WIyWlLk6GJQsqaUBKTNV-1" source="FTuvNDVsQv9sABHEffth-85" target="FTuvNDVsQv9sABHEffth-78" edge="1">
          <mxGeometry relative="1" as="geometry" />
        </mxCell>
        <mxCell id="FTuvNDVsQv9sABHEffth-85" value="&lt;font size=&quot;3&quot;&gt;&lt;b&gt;client&lt;/b&gt;&lt;br&gt;add the message to receiver chat box&lt;br&gt;&lt;/font&gt;" style="strokeWidth=2;html=1;shape=mxgraph.flowchart.display;whiteSpace=wrap;labelBorderColor=none;spacing=22;" parent="WIyWlLk6GJQsqaUBKTNV-1" vertex="1">
          <mxGeometry x="610" y="2045" width="170" height="90" as="geometry" />
        </mxCell>
        <mxCell id="FTuvNDVsQv9sABHEffth-88" value="&lt;font size=&quot;3&quot;&gt;END&lt;/font&gt;" style="strokeWidth=2;html=1;shape=mxgraph.flowchart.terminator;whiteSpace=wrap;" parent="WIyWlLk6GJQsqaUBKTNV-1" vertex="1">
          <mxGeometry x="385" y="2205" width="100" height="60" as="geometry" />
        </mxCell>
        <mxCell id="FTuvNDVsQv9sABHEffth-90" value="Create Group Chat" style="shape=table;startSize=30;container=1;collapsible=0;childLayout=tableLayout;fontSize=18;" parent="WIyWlLk6GJQsqaUBKTNV-1" vertex="1">
          <mxGeometry x="856" y="1110" width="770" height="1200" as="geometry" />
        </mxCell>
        <mxCell id="FTuvNDVsQv9sABHEffth-91" value="" style="shape=tableRow;horizontal=0;startSize=0;swimlaneHead=0;swimlaneBody=0;strokeColor=inherit;top=0;left=0;bottom=0;right=0;collapsible=0;dropTarget=0;fillColor=none;points=[[0,0.5],[1,0.5]];portConstraint=eastwest;" parent="FTuvNDVsQv9sABHEffth-90" vertex="1">
          <mxGeometry y="30" width="770" height="1170" as="geometry" />
        </mxCell>
        <mxCell id="FTuvNDVsQv9sABHEffth-92" value="" style="shape=partialRectangle;html=1;whiteSpace=wrap;connectable=0;strokeColor=inherit;overflow=hidden;fillColor=none;top=0;left=0;bottom=0;right=0;pointerEvents=1;" parent="FTuvNDVsQv9sABHEffth-91" vertex="1">
          <mxGeometry width="770" height="1170" as="geometry">
            <mxRectangle width="770" height="1170" as="alternateBounds" />
          </mxGeometry>
        </mxCell>
        <mxCell id="FTuvNDVsQv9sABHEffth-93" value="Group Chat" style="shape=table;startSize=30;container=1;collapsible=0;childLayout=tableLayout;fontSize=18;" parent="WIyWlLk6GJQsqaUBKTNV-1" vertex="1">
          <mxGeometry x="1681" y="1110" width="770" height="1200" as="geometry" />
        </mxCell>
        <mxCell id="FTuvNDVsQv9sABHEffth-94" value="" style="shape=tableRow;horizontal=0;startSize=0;swimlaneHead=0;swimlaneBody=0;strokeColor=inherit;top=0;left=0;bottom=0;right=0;collapsible=0;dropTarget=0;fillColor=none;points=[[0,0.5],[1,0.5]];portConstraint=eastwest;" parent="FTuvNDVsQv9sABHEffth-93" vertex="1">
          <mxGeometry y="30" width="770" height="1170" as="geometry" />
        </mxCell>
        <mxCell id="FTuvNDVsQv9sABHEffth-95" value="" style="shape=partialRectangle;html=1;whiteSpace=wrap;connectable=0;strokeColor=inherit;overflow=hidden;fillColor=none;top=0;left=0;bottom=0;right=0;pointerEvents=1;" parent="FTuvNDVsQv9sABHEffth-94" vertex="1">
          <mxGeometry width="770" height="1170" as="geometry">
            <mxRectangle width="770" height="1170" as="alternateBounds" />
          </mxGeometry>
        </mxCell>
        <mxCell id="FTuvNDVsQv9sABHEffth-97" value="" style="edgeStyle=orthogonalEdgeStyle;rounded=0;orthogonalLoop=1;jettySize=auto;html=1;strokeWidth=3;" parent="WIyWlLk6GJQsqaUBKTNV-1" source="FTuvNDVsQv9sABHEffth-96" target="G7jmCf8zDLp_H4D1jOkU-48" edge="1">
          <mxGeometry relative="1" as="geometry" />
        </mxCell>
        <mxCell id="FTuvNDVsQv9sABHEffth-96" value="&lt;font size=&quot;3&quot;&gt;START&lt;/font&gt;" style="strokeWidth=2;html=1;shape=mxgraph.flowchart.terminator;whiteSpace=wrap;" parent="WIyWlLk6GJQsqaUBKTNV-1" vertex="1">
          <mxGeometry x="2845" y="170" width="100" height="60" as="geometry" />
        </mxCell>
        <mxCell id="FTuvNDVsQv9sABHEffth-98" value="&lt;font size=&quot;3&quot;&gt;END&lt;/font&gt;" style="strokeWidth=2;html=1;shape=mxgraph.flowchart.terminator;whiteSpace=wrap;" parent="WIyWlLk6GJQsqaUBKTNV-1" vertex="1">
          <mxGeometry x="2852" y="860" width="100" height="60" as="geometry" />
        </mxCell>
        <mxCell id="FTuvNDVsQv9sABHEffth-101" value="&lt;font style=&quot;font-size: 24px;&quot;&gt;B&lt;/font&gt;" style="ellipse;whiteSpace=wrap;html=1;aspect=fixed;strokeWidth=2;" parent="WIyWlLk6GJQsqaUBKTNV-1" vertex="1">
          <mxGeometry x="1465" y="585" width="60" height="60" as="geometry" />
        </mxCell>
        <mxCell id="FTuvNDVsQv9sABHEffth-105" value="" style="edgeStyle=orthogonalEdgeStyle;rounded=0;orthogonalLoop=1;jettySize=auto;html=1;strokeWidth=3;" parent="WIyWlLk6GJQsqaUBKTNV-1" source="FTuvNDVsQv9sABHEffth-103" target="FTuvNDVsQv9sABHEffth-104" edge="1">
          <mxGeometry relative="1" as="geometry" />
        </mxCell>
        <mxCell id="FTuvNDVsQv9sABHEffth-103" value="&lt;font style=&quot;font-size: 24px;&quot;&gt;B&lt;/font&gt;" style="ellipse;whiteSpace=wrap;html=1;aspect=fixed;strokeWidth=2;" parent="WIyWlLk6GJQsqaUBKTNV-1" vertex="1">
          <mxGeometry x="900" y="1190" width="60" height="60" as="geometry" />
        </mxCell>
        <mxCell id="FTuvNDVsQv9sABHEffth-107" value="" style="edgeStyle=orthogonalEdgeStyle;rounded=0;orthogonalLoop=1;jettySize=auto;html=1;strokeWidth=3;" parent="WIyWlLk6GJQsqaUBKTNV-1" source="FTuvNDVsQv9sABHEffth-104" target="FTuvNDVsQv9sABHEffth-106" edge="1">
          <mxGeometry relative="1" as="geometry" />
        </mxCell>
        <mxCell id="FTuvNDVsQv9sABHEffth-104" value="&lt;div style=&quot;padding-top: 0px; padding-left: 0px; padding-right: 0px;&quot; align=&quot;center&quot;&gt;&lt;font style=&quot;font-size: 16px;&quot;&gt;click create group button&lt;br&gt;&lt;/font&gt;&lt;/div&gt;" style="shape=parallelogram;strokeWidth=2;perimeter=parallelogramPerimeter;rounded=1;arcSize=12;size=0.23;fixedWidth=0;autosize=0;expand=1;whiteSpace=wrap;html=1;align=center;labelBorderColor=none;textShadow=0;labelBackgroundColor=none;spacingLeft=0;spacingRight=0;spacing=32;" parent="WIyWlLk6GJQsqaUBKTNV-1" vertex="1">
          <mxGeometry x="990" y="1175" width="180" height="90" as="geometry" />
        </mxCell>
        <mxCell id="FTuvNDVsQv9sABHEffth-109" value="" style="edgeStyle=orthogonalEdgeStyle;rounded=0;orthogonalLoop=1;jettySize=auto;html=1;strokeWidth=3;" parent="WIyWlLk6GJQsqaUBKTNV-1" source="FTuvNDVsQv9sABHEffth-106" target="FTuvNDVsQv9sABHEffth-108" edge="1">
          <mxGeometry relative="1" as="geometry" />
        </mxCell>
        <mxCell id="FTuvNDVsQv9sABHEffth-106" value="&lt;font size=&quot;3&quot;&gt;&lt;b&gt;client&lt;/b&gt;&lt;br&gt;display create group box&lt;br&gt;&lt;/font&gt;" style="strokeWidth=2;html=1;shape=mxgraph.flowchart.display;whiteSpace=wrap;labelBorderColor=none;spacing=22;" parent="WIyWlLk6GJQsqaUBKTNV-1" vertex="1">
          <mxGeometry x="1230" y="1175" width="170" height="90" as="geometry" />
        </mxCell>
        <mxCell id="FTuvNDVsQv9sABHEffth-111" value="" style="edgeStyle=orthogonalEdgeStyle;rounded=0;orthogonalLoop=1;jettySize=auto;html=1;strokeWidth=3;" parent="WIyWlLk6GJQsqaUBKTNV-1" source="FTuvNDVsQv9sABHEffth-108" target="FTuvNDVsQv9sABHEffth-110" edge="1">
          <mxGeometry relative="1" as="geometry" />
        </mxCell>
        <mxCell id="FTuvNDVsQv9sABHEffth-108" value="&lt;div style=&quot;padding-top: 0px; padding-left: 0px; padding-right: 0px;&quot; align=&quot;center&quot;&gt;&lt;font style=&quot;font-size: 16px;&quot;&gt;input name, description&lt;br&gt;&lt;/font&gt;&lt;/div&gt;" style="shape=parallelogram;strokeWidth=2;perimeter=parallelogramPerimeter;rounded=1;arcSize=12;size=0.23;fixedWidth=0;autosize=0;expand=1;whiteSpace=wrap;html=1;align=center;labelBorderColor=none;textShadow=0;labelBackgroundColor=none;spacingLeft=0;spacingRight=0;spacing=32;" parent="WIyWlLk6GJQsqaUBKTNV-1" vertex="1">
          <mxGeometry x="1416" y="1325" width="180" height="90" as="geometry" />
        </mxCell>
        <mxCell id="FTuvNDVsQv9sABHEffth-113" value="" style="edgeStyle=orthogonalEdgeStyle;rounded=0;orthogonalLoop=1;jettySize=auto;html=1;strokeWidth=3;" parent="WIyWlLk6GJQsqaUBKTNV-1" source="FTuvNDVsQv9sABHEffth-110" target="FTuvNDVsQv9sABHEffth-112" edge="1">
          <mxGeometry relative="1" as="geometry" />
        </mxCell>
        <mxCell id="FTuvNDVsQv9sABHEffth-110" value="&lt;font size=&quot;3&quot;&gt;&lt;b&gt;client&lt;/b&gt;&lt;br&gt;filter the inputs (length &amp;amp; regex)&lt;/font&gt;" style="rounded=1;whiteSpace=wrap;html=1;absoluteArcSize=1;arcSize=14;strokeWidth=2;labelBorderColor=none;" parent="WIyWlLk6GJQsqaUBKTNV-1" vertex="1">
          <mxGeometry x="1153" y="1320" width="190" height="100" as="geometry" />
        </mxCell>
        <mxCell id="an1uXyHyDIEqWNbMvVYi-50" value="" style="edgeStyle=orthogonalEdgeStyle;rounded=0;orthogonalLoop=1;jettySize=auto;html=1;strokeWidth=3;" parent="WIyWlLk6GJQsqaUBKTNV-1" source="FTuvNDVsQv9sABHEffth-112" target="an1uXyHyDIEqWNbMvVYi-49" edge="1">
          <mxGeometry relative="1" as="geometry" />
        </mxCell>
        <mxCell id="FTuvNDVsQv9sABHEffth-112" value="&lt;font size=&quot;3&quot;&gt;send header (token) &amp;amp; payload to server&lt;br&gt;(name, description)&lt;br&gt;&lt;/font&gt;" style="rounded=1;whiteSpace=wrap;html=1;absoluteArcSize=1;arcSize=14;strokeWidth=2;labelBorderColor=none;" parent="WIyWlLk6GJQsqaUBKTNV-1" vertex="1">
          <mxGeometry x="881" y="1320" width="190" height="100" as="geometry" />
        </mxCell>
        <mxCell id="FTuvNDVsQv9sABHEffth-117" value="" style="edgeStyle=orthogonalEdgeStyle;rounded=0;orthogonalLoop=1;jettySize=auto;html=1;strokeWidth=3;" parent="WIyWlLk6GJQsqaUBKTNV-1" source="FTuvNDVsQv9sABHEffth-114" target="FTuvNDVsQv9sABHEffth-116" edge="1">
          <mxGeometry relative="1" as="geometry" />
        </mxCell>
        <mxCell id="FTuvNDVsQv9sABHEffth-114" value="&lt;font size=&quot;3&quot;&gt;&lt;b&gt;server&lt;/b&gt;&lt;br&gt;filter the payload (num of inputs, typeof, length, regex)&lt;br&gt;&lt;/font&gt;" style="rounded=1;whiteSpace=wrap;html=1;absoluteArcSize=1;arcSize=14;strokeWidth=2;labelBorderColor=none;" parent="WIyWlLk6GJQsqaUBKTNV-1" vertex="1">
          <mxGeometry x="1152" y="1665" width="190" height="100" as="geometry" />
        </mxCell>
        <mxCell id="FTuvNDVsQv9sABHEffth-119" value="" style="edgeStyle=orthogonalEdgeStyle;rounded=0;orthogonalLoop=1;jettySize=auto;html=1;strokeWidth=3;" parent="WIyWlLk6GJQsqaUBKTNV-1" source="FTuvNDVsQv9sABHEffth-116" target="FTuvNDVsQv9sABHEffth-118" edge="1">
          <mxGeometry relative="1" as="geometry" />
        </mxCell>
        <mxCell id="FTuvNDVsQv9sABHEffth-123" value="&lt;font style=&quot;font-size: 18px;&quot;&gt;NO&lt;/font&gt;" style="edgeLabel;html=1;align=center;verticalAlign=middle;resizable=0;points=[];" parent="FTuvNDVsQv9sABHEffth-119" vertex="1" connectable="0">
          <mxGeometry x="-0.2459" relative="1" as="geometry">
            <mxPoint x="-143" as="offset" />
          </mxGeometry>
        </mxCell>
        <mxCell id="FTuvNDVsQv9sABHEffth-122" value="" style="edgeStyle=orthogonalEdgeStyle;rounded=0;orthogonalLoop=1;jettySize=auto;html=1;strokeWidth=3;" parent="WIyWlLk6GJQsqaUBKTNV-1" source="FTuvNDVsQv9sABHEffth-116" target="FTuvNDVsQv9sABHEffth-121" edge="1">
          <mxGeometry relative="1" as="geometry" />
        </mxCell>
        <mxCell id="FTuvNDVsQv9sABHEffth-124" value="&lt;font style=&quot;font-size: 18px;&quot;&gt;YES&lt;/font&gt;" style="edgeLabel;html=1;align=center;verticalAlign=middle;resizable=0;points=[];" parent="FTuvNDVsQv9sABHEffth-122" vertex="1" connectable="0">
          <mxGeometry x="-0.2521" y="-1" relative="1" as="geometry">
            <mxPoint x="61" y="1" as="offset" />
          </mxGeometry>
        </mxCell>
        <mxCell id="an1uXyHyDIEqWNbMvVYi-57" value="&lt;font style=&quot;font-size: 18px;&quot;&gt;YES&lt;/font&gt;" style="edgeLabel;html=1;align=center;verticalAlign=middle;resizable=0;points=[];" parent="FTuvNDVsQv9sABHEffth-122" vertex="1" connectable="0">
          <mxGeometry x="-0.2437" y="-1" relative="1" as="geometry">
            <mxPoint as="offset" />
          </mxGeometry>
        </mxCell>
        <mxCell id="FTuvNDVsQv9sABHEffth-116" value="&lt;font size=&quot;3&quot;&gt;filter success?&lt;/font&gt;" style="strokeWidth=2;html=1;shape=mxgraph.flowchart.decision;whiteSpace=wrap;" parent="WIyWlLk6GJQsqaUBKTNV-1" vertex="1">
          <mxGeometry x="1180" y="1820" width="136" height="140" as="geometry" />
        </mxCell>
        <mxCell id="FTuvNDVsQv9sABHEffth-120" value="" style="edgeStyle=orthogonalEdgeStyle;rounded=0;orthogonalLoop=1;jettySize=auto;html=1;strokeWidth=3;" parent="WIyWlLk6GJQsqaUBKTNV-1" source="FTuvNDVsQv9sABHEffth-118" target="FTuvNDVsQv9sABHEffth-108" edge="1">
          <mxGeometry relative="1" as="geometry" />
        </mxCell>
        <mxCell id="FTuvNDVsQv9sABHEffth-118" value="&lt;font size=&quot;3&quot;&gt;&lt;b&gt;client&lt;/b&gt;&lt;br&gt;display error message&lt;br&gt;&lt;/font&gt;" style="strokeWidth=2;html=1;shape=mxgraph.flowchart.display;whiteSpace=wrap;labelBorderColor=none;spacing=22;" parent="WIyWlLk6GJQsqaUBKTNV-1" vertex="1">
          <mxGeometry x="1421" y="1495" width="170" height="90" as="geometry" />
        </mxCell>
        <mxCell id="FTuvNDVsQv9sABHEffth-130" value="" style="edgeStyle=orthogonalEdgeStyle;rounded=0;orthogonalLoop=1;jettySize=auto;html=1;strokeWidth=3;" parent="WIyWlLk6GJQsqaUBKTNV-1" source="FTuvNDVsQv9sABHEffth-121" target="FTuvNDVsQv9sABHEffth-129" edge="1">
          <mxGeometry relative="1" as="geometry">
            <Array as="points">
              <mxPoint x="980" y="2050" />
            </Array>
          </mxGeometry>
        </mxCell>
        <mxCell id="FTuvNDVsQv9sABHEffth-121" value="&lt;font size=&quot;3&quot;&gt;create group invite link, then merge with payload&lt;br&gt;&lt;/font&gt;" style="rounded=1;whiteSpace=wrap;html=1;absoluteArcSize=1;arcSize=14;strokeWidth=2;labelBorderColor=none;" parent="WIyWlLk6GJQsqaUBKTNV-1" vertex="1">
          <mxGeometry x="885" y="1840" width="190" height="100" as="geometry" />
        </mxCell>
        <mxCell id="FTuvNDVsQv9sABHEffth-125" value="&lt;p style=&quot;line-height: 120%; padding-bottom: 0px; margin-top: 0px; margin-bottom: 20px;&quot;&gt;&lt;font size=&quot;3&quot;&gt;group chat &amp;amp; group chat user&lt;br&gt;&lt;/font&gt;&lt;/p&gt;" style="strokeWidth=2;html=1;shape=mxgraph.flowchart.merge_or_storage;whiteSpace=wrap;labelBorderColor=none;spacing=22;verticalAlign=middle;horizontal=1;labelPosition=center;verticalLabelPosition=middle;align=center;" parent="WIyWlLk6GJQsqaUBKTNV-1" vertex="1">
          <mxGeometry x="1178.5" y="2150" width="139" height="80" as="geometry" />
        </mxCell>
        <mxCell id="FTuvNDVsQv9sABHEffth-135" value="" style="edgeStyle=orthogonalEdgeStyle;rounded=0;orthogonalLoop=1;jettySize=auto;html=1;strokeWidth=3;" parent="WIyWlLk6GJQsqaUBKTNV-1" source="FTuvNDVsQv9sABHEffth-127" target="FTuvNDVsQv9sABHEffth-134" edge="1">
          <mxGeometry relative="1" as="geometry">
            <Array as="points">
              <mxPoint x="1650" y="2055" />
              <mxPoint x="1650" y="1220" />
            </Array>
          </mxGeometry>
        </mxCell>
        <mxCell id="FTuvNDVsQv9sABHEffth-127" value="&lt;font size=&quot;3&quot;&gt;&lt;b&gt;client&lt;/b&gt;&lt;br&gt;display success message&lt;br&gt;&lt;/font&gt;" style="strokeWidth=2;html=1;shape=mxgraph.flowchart.display;whiteSpace=wrap;labelBorderColor=none;spacing=22;" parent="WIyWlLk6GJQsqaUBKTNV-1" vertex="1">
          <mxGeometry x="1421" y="2005" width="170" height="90" as="geometry" />
        </mxCell>
        <mxCell id="FTuvNDVsQv9sABHEffth-131" value="" style="edgeStyle=orthogonalEdgeStyle;rounded=0;orthogonalLoop=1;jettySize=auto;html=1;strokeWidth=3;" parent="WIyWlLk6GJQsqaUBKTNV-1" source="FTuvNDVsQv9sABHEffth-129" target="FTuvNDVsQv9sABHEffth-125" edge="1">
          <mxGeometry relative="1" as="geometry" />
        </mxCell>
        <mxCell id="FTuvNDVsQv9sABHEffth-133" value="" style="edgeStyle=orthogonalEdgeStyle;rounded=0;orthogonalLoop=1;jettySize=auto;html=1;strokeWidth=3;" parent="WIyWlLk6GJQsqaUBKTNV-1" source="FTuvNDVsQv9sABHEffth-129" target="FTuvNDVsQv9sABHEffth-127" edge="1">
          <mxGeometry relative="1" as="geometry" />
        </mxCell>
        <mxCell id="FTuvNDVsQv9sABHEffth-129" value="&lt;font size=&quot;3&quot;&gt;store to database&lt;br&gt;&lt;/font&gt;" style="rounded=1;whiteSpace=wrap;html=1;absoluteArcSize=1;arcSize=14;strokeWidth=2;labelBorderColor=none;" parent="WIyWlLk6GJQsqaUBKTNV-1" vertex="1">
          <mxGeometry x="1153" y="2000" width="190" height="100" as="geometry" />
        </mxCell>
        <mxCell id="an1uXyHyDIEqWNbMvVYi-59" value="" style="edgeStyle=orthogonalEdgeStyle;rounded=0;orthogonalLoop=1;jettySize=auto;html=1;strokeWidth=3;" parent="WIyWlLk6GJQsqaUBKTNV-1" source="FTuvNDVsQv9sABHEffth-134" target="an1uXyHyDIEqWNbMvVYi-58" edge="1">
          <mxGeometry relative="1" as="geometry" />
        </mxCell>
        <mxCell id="FTuvNDVsQv9sABHEffth-134" value="&lt;div style=&quot;padding-top: 0px; padding-left: 0px; padding-right: 0px;&quot; align=&quot;center&quot;&gt;&lt;font style=&quot;font-size: 16px;&quot;&gt;select group to chat with&lt;br&gt;&lt;/font&gt;&lt;/div&gt;" style="shape=parallelogram;strokeWidth=2;perimeter=parallelogramPerimeter;rounded=1;arcSize=12;size=0.23;fixedWidth=0;autosize=0;expand=1;whiteSpace=wrap;html=1;align=center;labelBorderColor=none;textShadow=0;labelBackgroundColor=none;spacingLeft=0;spacingRight=0;spacing=32;" parent="WIyWlLk6GJQsqaUBKTNV-1" vertex="1">
          <mxGeometry x="1718" y="1175" width="180" height="90" as="geometry" />
        </mxCell>
        <mxCell id="an1uXyHyDIEqWNbMvVYi-4" value="" style="edgeStyle=orthogonalEdgeStyle;rounded=0;orthogonalLoop=1;jettySize=auto;html=1;strokeWidth=3;" parent="WIyWlLk6GJQsqaUBKTNV-1" source="an1uXyHyDIEqWNbMvVYi-1" target="an1uXyHyDIEqWNbMvVYi-2" edge="1">
          <mxGeometry relative="1" as="geometry">
            <Array as="points">
              <mxPoint x="678" y="310" />
            </Array>
          </mxGeometry>
        </mxCell>
        <mxCell id="an1uXyHyDIEqWNbMvVYi-1" value="&lt;font size=&quot;3&quot;&gt;&lt;b&gt;client&lt;/b&gt;&lt;br&gt;check jwt token&lt;br&gt;&lt;/font&gt;" style="rounded=1;whiteSpace=wrap;html=1;absoluteArcSize=1;arcSize=14;strokeWidth=2;labelBorderColor=none;" parent="WIyWlLk6GJQsqaUBKTNV-1" vertex="1">
          <mxGeometry x="334.5" y="260" width="160" height="90" as="geometry" />
        </mxCell>
        <mxCell id="an1uXyHyDIEqWNbMvVYi-5" value="" style="edgeStyle=orthogonalEdgeStyle;rounded=0;orthogonalLoop=1;jettySize=auto;html=1;strokeWidth=3;" parent="WIyWlLk6GJQsqaUBKTNV-1" source="an1uXyHyDIEqWNbMvVYi-2" target="_3EE8X__OzSHqQlS0Vvo-16" edge="1">
          <mxGeometry relative="1" as="geometry" />
        </mxCell>
        <mxCell id="an1uXyHyDIEqWNbMvVYi-6" value="&lt;font style=&quot;font-size: 18px;&quot;&gt;NO&lt;/font&gt;" style="edgeLabel;html=1;align=center;verticalAlign=middle;resizable=0;points=[];" parent="an1uXyHyDIEqWNbMvVYi-5" vertex="1" connectable="0">
          <mxGeometry x="-0.4915" relative="1" as="geometry">
            <mxPoint x="-4" as="offset" />
          </mxGeometry>
        </mxCell>
        <mxCell id="an1uXyHyDIEqWNbMvVYi-8" value="" style="edgeStyle=orthogonalEdgeStyle;rounded=0;orthogonalLoop=1;jettySize=auto;html=1;strokeWidth=3;" parent="WIyWlLk6GJQsqaUBKTNV-1" source="an1uXyHyDIEqWNbMvVYi-2" target="an1uXyHyDIEqWNbMvVYi-7" edge="1">
          <mxGeometry relative="1" as="geometry" />
        </mxCell>
        <mxCell id="an1uXyHyDIEqWNbMvVYi-15" value="&lt;font style=&quot;font-size: 18px;&quot;&gt;YES&lt;/font&gt;" style="edgeLabel;html=1;align=center;verticalAlign=middle;resizable=0;points=[];" parent="an1uXyHyDIEqWNbMvVYi-8" vertex="1" connectable="0">
          <mxGeometry x="-0.3251" relative="1" as="geometry">
            <mxPoint as="offset" />
          </mxGeometry>
        </mxCell>
        <mxCell id="an1uXyHyDIEqWNbMvVYi-2" value="&lt;font size=&quot;3&quot;&gt;token exist?&lt;br&gt;&lt;/font&gt;" style="strokeWidth=2;html=1;shape=mxgraph.flowchart.decision;whiteSpace=wrap;" parent="WIyWlLk6GJQsqaUBKTNV-1" vertex="1">
          <mxGeometry x="622.75" y="360" width="110" height="115" as="geometry" />
        </mxCell>
        <mxCell id="an1uXyHyDIEqWNbMvVYi-10" value="" style="edgeStyle=orthogonalEdgeStyle;rounded=0;orthogonalLoop=1;jettySize=auto;html=1;strokeWidth=3;" parent="WIyWlLk6GJQsqaUBKTNV-1" source="an1uXyHyDIEqWNbMvVYi-7" target="an1uXyHyDIEqWNbMvVYi-9" edge="1">
          <mxGeometry relative="1" as="geometry" />
        </mxCell>
        <mxCell id="an1uXyHyDIEqWNbMvVYi-7" value="&lt;font size=&quot;3&quot;&gt;verify token&lt;br&gt;&lt;/font&gt;" style="rounded=1;whiteSpace=wrap;html=1;absoluteArcSize=1;arcSize=14;strokeWidth=2;labelBorderColor=none;" parent="WIyWlLk6GJQsqaUBKTNV-1" vertex="1">
          <mxGeometry x="597.75" y="530" width="160" height="90" as="geometry" />
        </mxCell>
        <mxCell id="an1uXyHyDIEqWNbMvVYi-11" value="" style="edgeStyle=orthogonalEdgeStyle;rounded=0;orthogonalLoop=1;jettySize=auto;html=1;strokeWidth=3;" parent="WIyWlLk6GJQsqaUBKTNV-1" source="an1uXyHyDIEqWNbMvVYi-9" target="_3EE8X__OzSHqQlS0Vvo-41" edge="1">
          <mxGeometry relative="1" as="geometry" />
        </mxCell>
        <mxCell id="an1uXyHyDIEqWNbMvVYi-12" value="&lt;font style=&quot;font-size: 18px;&quot;&gt;NO&lt;/font&gt;" style="edgeLabel;html=1;align=center;verticalAlign=middle;resizable=0;points=[];" parent="an1uXyHyDIEqWNbMvVYi-11" vertex="1" connectable="0">
          <mxGeometry x="-0.2269" relative="1" as="geometry">
            <mxPoint as="offset" />
          </mxGeometry>
        </mxCell>
        <mxCell id="an1uXyHyDIEqWNbMvVYi-13" style="edgeStyle=orthogonalEdgeStyle;rounded=0;orthogonalLoop=1;jettySize=auto;html=1;strokeWidth=3;" parent="WIyWlLk6GJQsqaUBKTNV-1" source="an1uXyHyDIEqWNbMvVYi-9" target="_3EE8X__OzSHqQlS0Vvo-16" edge="1">
          <mxGeometry relative="1" as="geometry">
            <Array as="points">
              <mxPoint x="520" y="717" />
              <mxPoint x="520" y="500" />
              <mxPoint x="413" y="500" />
            </Array>
          </mxGeometry>
        </mxCell>
        <mxCell id="an1uXyHyDIEqWNbMvVYi-14" value="&lt;font style=&quot;font-size: 18px;&quot;&gt;YES&lt;/font&gt;" style="edgeLabel;html=1;align=center;verticalAlign=middle;resizable=0;points=[];" parent="an1uXyHyDIEqWNbMvVYi-13" vertex="1" connectable="0">
          <mxGeometry x="-0.8194" relative="1" as="geometry">
            <mxPoint as="offset" />
          </mxGeometry>
        </mxCell>
        <mxCell id="an1uXyHyDIEqWNbMvVYi-9" value="&lt;font size=&quot;3&quot;&gt;expired?&lt;/font&gt;" style="strokeWidth=2;html=1;shape=mxgraph.flowchart.decision;whiteSpace=wrap;" parent="WIyWlLk6GJQsqaUBKTNV-1" vertex="1">
          <mxGeometry x="622.75" y="660" width="110" height="115" as="geometry" />
        </mxCell>
        <mxCell id="an1uXyHyDIEqWNbMvVYi-29" value="" style="edgeStyle=orthogonalEdgeStyle;rounded=0;orthogonalLoop=1;jettySize=auto;html=1;strokeWidth=3;" parent="WIyWlLk6GJQsqaUBKTNV-1" source="an1uXyHyDIEqWNbMvVYi-24" target="G7jmCf8zDLp_H4D1jOkU-65" edge="1">
          <mxGeometry relative="1" as="geometry" />
        </mxCell>
        <mxCell id="an1uXyHyDIEqWNbMvVYi-30" value="&lt;font style=&quot;font-size: 18px;&quot;&gt;YES&lt;/font&gt;" style="edgeLabel;html=1;align=center;verticalAlign=middle;resizable=0;points=[];" parent="an1uXyHyDIEqWNbMvVYi-29" vertex="1" connectable="0">
          <mxGeometry x="-0.1288" y="1" relative="1" as="geometry">
            <mxPoint y="-1" as="offset" />
          </mxGeometry>
        </mxCell>
        <mxCell id="an1uXyHyDIEqWNbMvVYi-32" value="" style="edgeStyle=orthogonalEdgeStyle;rounded=0;orthogonalLoop=1;jettySize=auto;html=1;strokeWidth=3;" parent="WIyWlLk6GJQsqaUBKTNV-1" source="an1uXyHyDIEqWNbMvVYi-24" target="an1uXyHyDIEqWNbMvVYi-31" edge="1">
          <mxGeometry relative="1" as="geometry" />
        </mxCell>
        <mxCell id="an1uXyHyDIEqWNbMvVYi-33" value="&lt;font style=&quot;font-size: 18px;&quot;&gt;NO&lt;/font&gt;" style="edgeLabel;html=1;align=center;verticalAlign=middle;resizable=0;points=[];" parent="an1uXyHyDIEqWNbMvVYi-32" vertex="1" connectable="0">
          <mxGeometry x="-0.2647" y="1" relative="1" as="geometry">
            <mxPoint as="offset" />
          </mxGeometry>
        </mxCell>
        <mxCell id="an1uXyHyDIEqWNbMvVYi-24" value="&lt;font size=&quot;3&quot;&gt;verified?&lt;/font&gt;" style="strokeWidth=2;html=1;shape=mxgraph.flowchart.decision;whiteSpace=wrap;" parent="WIyWlLk6GJQsqaUBKTNV-1" vertex="1">
          <mxGeometry x="2834" y="520" width="136" height="140" as="geometry" />
        </mxCell>
        <mxCell id="an1uXyHyDIEqWNbMvVYi-34" style="edgeStyle=orthogonalEdgeStyle;rounded=0;orthogonalLoop=1;jettySize=auto;html=1;strokeWidth=3;" parent="WIyWlLk6GJQsqaUBKTNV-1" source="an1uXyHyDIEqWNbMvVYi-31" target="FTuvNDVsQv9sABHEffth-98" edge="1">
          <mxGeometry relative="1" as="geometry" />
        </mxCell>
        <mxCell id="an1uXyHyDIEqWNbMvVYi-31" value="&lt;font size=&quot;3&quot;&gt;&lt;b&gt;client&lt;/b&gt;&lt;br&gt;display error message&lt;br&gt;&lt;/font&gt;" style="strokeWidth=2;html=1;shape=mxgraph.flowchart.display;whiteSpace=wrap;labelBorderColor=none;spacing=22;" parent="WIyWlLk6GJQsqaUBKTNV-1" vertex="1">
          <mxGeometry x="2817" y="720" width="170" height="90" as="geometry" />
        </mxCell>
        <mxCell id="an1uXyHyDIEqWNbMvVYi-36" value="&lt;font size=&quot;3&quot;&gt;&lt;b&gt;server&lt;/b&gt;&lt;br&gt;verify token&lt;br&gt;&lt;/font&gt;" style="rounded=1;whiteSpace=wrap;html=1;absoluteArcSize=1;arcSize=14;strokeWidth=2;labelBorderColor=none;" parent="WIyWlLk6GJQsqaUBKTNV-1" vertex="1">
          <mxGeometry x="70" y="1630" width="190" height="100" as="geometry" />
        </mxCell>
        <mxCell id="an1uXyHyDIEqWNbMvVYi-41" value="" style="edgeStyle=orthogonalEdgeStyle;rounded=0;orthogonalLoop=1;jettySize=auto;html=1;strokeWidth=3;" parent="WIyWlLk6GJQsqaUBKTNV-1" source="an1uXyHyDIEqWNbMvVYi-39" target="FTuvNDVsQv9sABHEffth-60" edge="1">
          <mxGeometry relative="1" as="geometry" />
        </mxCell>
        <mxCell id="an1uXyHyDIEqWNbMvVYi-42" value="&lt;font style=&quot;font-size: 18px;&quot;&gt;YES&lt;/font&gt;" style="edgeLabel;html=1;align=center;verticalAlign=middle;resizable=0;points=[];" parent="an1uXyHyDIEqWNbMvVYi-41" vertex="1" connectable="0">
          <mxGeometry x="-0.3791" relative="1" as="geometry">
            <mxPoint as="offset" />
          </mxGeometry>
        </mxCell>
        <mxCell id="an1uXyHyDIEqWNbMvVYi-39" value="&lt;font size=&quot;3&quot;&gt;verified?&lt;/font&gt;" style="strokeWidth=2;html=1;shape=mxgraph.flowchart.decision;whiteSpace=wrap;" parent="WIyWlLk6GJQsqaUBKTNV-1" vertex="1">
          <mxGeometry x="370" y="1520" width="120" height="120" as="geometry" />
        </mxCell>
        <mxCell id="an1uXyHyDIEqWNbMvVYi-40" style="edgeStyle=orthogonalEdgeStyle;rounded=0;orthogonalLoop=1;jettySize=auto;html=1;entryX=0;entryY=0.5;entryDx=0;entryDy=0;entryPerimeter=0;strokeWidth=3;" parent="WIyWlLk6GJQsqaUBKTNV-1" source="an1uXyHyDIEqWNbMvVYi-36" target="an1uXyHyDIEqWNbMvVYi-39" edge="1">
          <mxGeometry relative="1" as="geometry">
            <Array as="points">
              <mxPoint x="310" y="1680" />
              <mxPoint x="310" y="1580" />
            </Array>
          </mxGeometry>
        </mxCell>
        <mxCell id="an1uXyHyDIEqWNbMvVYi-45" style="edgeStyle=orthogonalEdgeStyle;rounded=0;orthogonalLoop=1;jettySize=auto;html=1;entryX=0;entryY=0.5;entryDx=0;entryDy=0;entryPerimeter=0;strokeWidth=3;" parent="WIyWlLk6GJQsqaUBKTNV-1" source="FTuvNDVsQv9sABHEffth-62" target="FTuvNDVsQv9sABHEffth-64" edge="1">
          <mxGeometry relative="1" as="geometry">
            <Array as="points">
              <mxPoint x="560" y="1930" />
              <mxPoint x="560" y="1749" />
            </Array>
          </mxGeometry>
        </mxCell>
        <mxCell id="an1uXyHyDIEqWNbMvVYi-46" value="&lt;font style=&quot;font-size: 18px;&quot;&gt;NO&lt;/font&gt;" style="edgeLabel;html=1;align=center;verticalAlign=middle;resizable=0;points=[];" parent="an1uXyHyDIEqWNbMvVYi-45" vertex="1" connectable="0">
          <mxGeometry x="-0.2894" y="-1" relative="1" as="geometry">
            <mxPoint x="-31" y="43" as="offset" />
          </mxGeometry>
        </mxCell>
        <mxCell id="an1uXyHyDIEqWNbMvVYi-47" style="edgeStyle=orthogonalEdgeStyle;rounded=0;orthogonalLoop=1;jettySize=auto;html=1;entryX=0;entryY=0.5;entryDx=0;entryDy=0;entryPerimeter=0;strokeWidth=3;" parent="WIyWlLk6GJQsqaUBKTNV-1" source="an1uXyHyDIEqWNbMvVYi-39" target="FTuvNDVsQv9sABHEffth-64" edge="1">
          <mxGeometry relative="1" as="geometry">
            <Array as="points">
              <mxPoint x="560" y="1580" />
              <mxPoint x="560" y="1749" />
            </Array>
          </mxGeometry>
        </mxCell>
        <mxCell id="an1uXyHyDIEqWNbMvVYi-48" value="&lt;font style=&quot;font-size: 18px;&quot;&gt;NO&lt;/font&gt;" style="edgeLabel;html=1;align=center;verticalAlign=middle;resizable=0;points=[];" parent="an1uXyHyDIEqWNbMvVYi-47" vertex="1" connectable="0">
          <mxGeometry x="-0.7743" y="-1" relative="1" as="geometry">
            <mxPoint y="-1" as="offset" />
          </mxGeometry>
        </mxCell>
        <mxCell id="an1uXyHyDIEqWNbMvVYi-52" value="" style="edgeStyle=orthogonalEdgeStyle;rounded=0;orthogonalLoop=1;jettySize=auto;html=1;strokeWidth=3;" parent="WIyWlLk6GJQsqaUBKTNV-1" source="an1uXyHyDIEqWNbMvVYi-49" target="an1uXyHyDIEqWNbMvVYi-51" edge="1">
          <mxGeometry relative="1" as="geometry" />
        </mxCell>
        <mxCell id="an1uXyHyDIEqWNbMvVYi-49" value="&lt;font size=&quot;3&quot;&gt;&lt;b&gt;server&lt;/b&gt;&lt;br&gt;verify token&lt;br&gt;&lt;/font&gt;" style="rounded=1;whiteSpace=wrap;html=1;absoluteArcSize=1;arcSize=14;strokeWidth=2;labelBorderColor=none;" parent="WIyWlLk6GJQsqaUBKTNV-1" vertex="1">
          <mxGeometry x="881" y="1490" width="190" height="100" as="geometry" />
        </mxCell>
        <mxCell id="an1uXyHyDIEqWNbMvVYi-55" value="" style="edgeStyle=orthogonalEdgeStyle;rounded=0;orthogonalLoop=1;jettySize=auto;html=1;strokeWidth=3;" parent="WIyWlLk6GJQsqaUBKTNV-1" source="an1uXyHyDIEqWNbMvVYi-51" target="FTuvNDVsQv9sABHEffth-114" edge="1">
          <mxGeometry relative="1" as="geometry" />
        </mxCell>
        <mxCell id="an1uXyHyDIEqWNbMvVYi-56" value="&lt;font style=&quot;font-size: 18px;&quot;&gt;YES&lt;/font&gt;" style="edgeLabel;html=1;align=center;verticalAlign=middle;resizable=0;points=[];" parent="an1uXyHyDIEqWNbMvVYi-55" vertex="1" connectable="0">
          <mxGeometry x="-0.2127" y="-1" relative="1" as="geometry">
            <mxPoint as="offset" />
          </mxGeometry>
        </mxCell>
        <mxCell id="an1uXyHyDIEqWNbMvVYi-51" value="&lt;font size=&quot;3&quot;&gt;verified?&lt;/font&gt;" style="strokeWidth=2;html=1;shape=mxgraph.flowchart.decision;whiteSpace=wrap;" parent="WIyWlLk6GJQsqaUBKTNV-1" vertex="1">
          <mxGeometry x="1187" y="1480" width="120" height="120" as="geometry" />
        </mxCell>
        <mxCell id="an1uXyHyDIEqWNbMvVYi-53" style="edgeStyle=orthogonalEdgeStyle;rounded=0;orthogonalLoop=1;jettySize=auto;html=1;entryX=0;entryY=0.5;entryDx=0;entryDy=0;entryPerimeter=0;strokeWidth=3;" parent="WIyWlLk6GJQsqaUBKTNV-1" source="an1uXyHyDIEqWNbMvVYi-51" target="FTuvNDVsQv9sABHEffth-118" edge="1">
          <mxGeometry relative="1" as="geometry" />
        </mxCell>
        <mxCell id="an1uXyHyDIEqWNbMvVYi-54" value="&lt;font style=&quot;font-size: 18px;&quot;&gt;NO&lt;/font&gt;" style="edgeLabel;html=1;align=center;verticalAlign=middle;resizable=0;points=[];" parent="an1uXyHyDIEqWNbMvVYi-53" vertex="1" connectable="0">
          <mxGeometry x="-0.8209" relative="1" as="geometry">
            <mxPoint x="24" as="offset" />
          </mxGeometry>
        </mxCell>
        <mxCell id="an1uXyHyDIEqWNbMvVYi-61" value="" style="edgeStyle=orthogonalEdgeStyle;rounded=0;orthogonalLoop=1;jettySize=auto;html=1;strokeWidth=3;" parent="WIyWlLk6GJQsqaUBKTNV-1" source="an1uXyHyDIEqWNbMvVYi-58" target="an1uXyHyDIEqWNbMvVYi-60" edge="1">
          <mxGeometry relative="1" as="geometry" />
        </mxCell>
        <mxCell id="an1uXyHyDIEqWNbMvVYi-58" value="&lt;font size=&quot;3&quot;&gt;&lt;b&gt;client&lt;/b&gt;&lt;br&gt;subscribe to pubnub channel (group id_name)&lt;br&gt;&lt;/font&gt;" style="rounded=1;whiteSpace=wrap;html=1;absoluteArcSize=1;arcSize=14;strokeWidth=2;labelBorderColor=none;" parent="WIyWlLk6GJQsqaUBKTNV-1" vertex="1">
          <mxGeometry x="1973.5" y="1169" width="190" height="100" as="geometry" />
        </mxCell>
        <mxCell id="an1uXyHyDIEqWNbMvVYi-103" value="" style="edgeStyle=orthogonalEdgeStyle;rounded=0;orthogonalLoop=1;jettySize=auto;html=1;strokeWidth=3;" parent="WIyWlLk6GJQsqaUBKTNV-1" source="an1uXyHyDIEqWNbMvVYi-60" target="an1uXyHyDIEqWNbMvVYi-63" edge="1">
          <mxGeometry relative="1" as="geometry" />
        </mxCell>
        <mxCell id="an1uXyHyDIEqWNbMvVYi-60" value="&lt;font size=&quot;3&quot;&gt;&lt;b&gt;client&lt;/b&gt;&lt;br&gt;display chat box&lt;br&gt;&lt;/font&gt;" style="strokeWidth=2;html=1;shape=mxgraph.flowchart.display;whiteSpace=wrap;labelBorderColor=none;spacing=22;" parent="WIyWlLk6GJQsqaUBKTNV-1" vertex="1">
          <mxGeometry x="2248.5" y="1174" width="170" height="90" as="geometry" />
        </mxCell>
        <mxCell id="an1uXyHyDIEqWNbMvVYi-62" value="" style="edgeStyle=orthogonalEdgeStyle;rounded=0;orthogonalLoop=1;jettySize=auto;html=1;strokeWidth=3;" parent="WIyWlLk6GJQsqaUBKTNV-1" source="an1uXyHyDIEqWNbMvVYi-63" target="an1uXyHyDIEqWNbMvVYi-65" edge="1">
          <mxGeometry relative="1" as="geometry" />
        </mxCell>
        <mxCell id="an1uXyHyDIEqWNbMvVYi-63" value="&lt;div style=&quot;padding-top: 0px; padding-left: 0px; padding-right: 0px;&quot; align=&quot;center&quot;&gt;&lt;font style=&quot;font-size: 16px;&quot;&gt;type message, then click send&lt;br&gt;&lt;/font&gt;&lt;/div&gt;" style="shape=parallelogram;strokeWidth=2;perimeter=parallelogramPerimeter;rounded=1;arcSize=12;size=0.23;fixedWidth=0;autosize=0;expand=1;whiteSpace=wrap;html=1;align=center;labelBorderColor=none;textShadow=0;labelBackgroundColor=none;spacingLeft=0;spacingRight=0;spacing=32;" parent="WIyWlLk6GJQsqaUBKTNV-1" vertex="1">
          <mxGeometry x="2243.5" y="1315" width="180" height="90" as="geometry" />
        </mxCell>
        <mxCell id="an1uXyHyDIEqWNbMvVYi-64" value="" style="edgeStyle=orthogonalEdgeStyle;rounded=0;orthogonalLoop=1;jettySize=auto;html=1;strokeWidth=3;" parent="WIyWlLk6GJQsqaUBKTNV-1" source="an1uXyHyDIEqWNbMvVYi-65" target="an1uXyHyDIEqWNbMvVYi-69" edge="1">
          <mxGeometry relative="1" as="geometry" />
        </mxCell>
        <mxCell id="an1uXyHyDIEqWNbMvVYi-65" value="&lt;font size=&quot;3&quot;&gt;&lt;b&gt;client&lt;/b&gt;&lt;br&gt;filter the inputs (length &amp;amp; regex)&lt;/font&gt;" style="rounded=1;whiteSpace=wrap;html=1;absoluteArcSize=1;arcSize=14;strokeWidth=2;labelBorderColor=none;" parent="WIyWlLk6GJQsqaUBKTNV-1" vertex="1">
          <mxGeometry x="1978.5" y="1310" width="190" height="100" as="geometry" />
        </mxCell>
        <mxCell id="an1uXyHyDIEqWNbMvVYi-66" value="" style="edgeStyle=orthogonalEdgeStyle;rounded=0;orthogonalLoop=1;jettySize=auto;html=1;strokeWidth=3;" parent="WIyWlLk6GJQsqaUBKTNV-1" source="an1uXyHyDIEqWNbMvVYi-67" target="an1uXyHyDIEqWNbMvVYi-90" edge="1">
          <mxGeometry relative="1" as="geometry" />
        </mxCell>
        <mxCell id="an1uXyHyDIEqWNbMvVYi-67" value="&lt;font size=&quot;3&quot;&gt;send header (token) &amp;amp; payload to server&lt;br&gt;(user_id, group_id, message, time)&lt;br&gt;&lt;/font&gt;" style="rounded=1;whiteSpace=wrap;html=1;absoluteArcSize=1;arcSize=14;strokeWidth=2;labelBorderColor=none;" parent="WIyWlLk6GJQsqaUBKTNV-1" vertex="1">
          <mxGeometry x="1708.5" y="1465" width="190" height="100" as="geometry" />
        </mxCell>
        <mxCell id="an1uXyHyDIEqWNbMvVYi-68" value="" style="edgeStyle=orthogonalEdgeStyle;rounded=0;orthogonalLoop=1;jettySize=auto;html=1;strokeWidth=3;" parent="WIyWlLk6GJQsqaUBKTNV-1" source="an1uXyHyDIEqWNbMvVYi-69" target="an1uXyHyDIEqWNbMvVYi-67" edge="1">
          <mxGeometry relative="1" as="geometry" />
        </mxCell>
        <mxCell id="an1uXyHyDIEqWNbMvVYi-69" value="&lt;font size=&quot;3&quot;&gt;&lt;b&gt;client&lt;/b&gt;&lt;br&gt;add the message to chat box&lt;br&gt;&lt;/font&gt;" style="strokeWidth=2;html=1;shape=mxgraph.flowchart.display;whiteSpace=wrap;labelBorderColor=none;spacing=22;" parent="WIyWlLk6GJQsqaUBKTNV-1" vertex="1">
          <mxGeometry x="1718.5" y="1315" width="170" height="90" as="geometry" />
        </mxCell>
        <mxCell id="an1uXyHyDIEqWNbMvVYi-70" value="" style="edgeStyle=orthogonalEdgeStyle;rounded=0;orthogonalLoop=1;jettySize=auto;html=1;strokeWidth=3;" parent="WIyWlLk6GJQsqaUBKTNV-1" source="an1uXyHyDIEqWNbMvVYi-71" target="an1uXyHyDIEqWNbMvVYi-74" edge="1">
          <mxGeometry relative="1" as="geometry" />
        </mxCell>
        <mxCell id="an1uXyHyDIEqWNbMvVYi-71" value="&lt;font size=&quot;3&quot;&gt;&lt;b&gt;server&lt;/b&gt;&lt;br&gt;filter the payload (num of inputs, typeof, length, regex)&lt;br&gt;&lt;/font&gt;" style="rounded=1;whiteSpace=wrap;html=1;absoluteArcSize=1;arcSize=14;strokeWidth=2;labelBorderColor=none;" parent="WIyWlLk6GJQsqaUBKTNV-1" vertex="1">
          <mxGeometry x="1973.5" y="1689" width="190" height="100" as="geometry" />
        </mxCell>
        <mxCell id="an1uXyHyDIEqWNbMvVYi-72" value="" style="edgeStyle=orthogonalEdgeStyle;rounded=0;orthogonalLoop=1;jettySize=auto;html=1;strokeWidth=3;" parent="WIyWlLk6GJQsqaUBKTNV-1" source="an1uXyHyDIEqWNbMvVYi-74" target="an1uXyHyDIEqWNbMvVYi-79" edge="1">
          <mxGeometry relative="1" as="geometry" />
        </mxCell>
        <mxCell id="an1uXyHyDIEqWNbMvVYi-73" value="&lt;font style=&quot;font-size: 18px;&quot;&gt;YES&lt;/font&gt;" style="edgeLabel;html=1;align=center;verticalAlign=middle;resizable=0;points=[];" parent="an1uXyHyDIEqWNbMvVYi-72" vertex="1" connectable="0">
          <mxGeometry x="-0.2843" y="1" relative="1" as="geometry">
            <mxPoint x="-1" y="-1" as="offset" />
          </mxGeometry>
        </mxCell>
        <mxCell id="an1uXyHyDIEqWNbMvVYi-74" value="&lt;font size=&quot;3&quot;&gt;filter success?&lt;/font&gt;" style="strokeWidth=2;html=1;shape=mxgraph.flowchart.decision;whiteSpace=wrap;" parent="WIyWlLk6GJQsqaUBKTNV-1" vertex="1">
          <mxGeometry x="2000.5" y="1845" width="136" height="140" as="geometry" />
        </mxCell>
        <mxCell id="an1uXyHyDIEqWNbMvVYi-75" value="" style="edgeStyle=orthogonalEdgeStyle;rounded=0;orthogonalLoop=1;jettySize=auto;html=1;strokeWidth=3;" parent="WIyWlLk6GJQsqaUBKTNV-1" source="an1uXyHyDIEqWNbMvVYi-76" target="an1uXyHyDIEqWNbMvVYi-63" edge="1">
          <mxGeometry relative="1" as="geometry" />
        </mxCell>
        <mxCell id="an1uXyHyDIEqWNbMvVYi-76" value="&lt;font size=&quot;3&quot;&gt;&lt;b&gt;client&lt;/b&gt;&lt;br&gt;display error message&lt;br&gt;&lt;/font&gt;" style="strokeWidth=2;html=1;shape=mxgraph.flowchart.display;whiteSpace=wrap;labelBorderColor=none;spacing=22;" parent="WIyWlLk6GJQsqaUBKTNV-1" vertex="1">
          <mxGeometry x="2248.5" y="1689" width="170" height="90" as="geometry" />
        </mxCell>
        <mxCell id="an1uXyHyDIEqWNbMvVYi-77" value="" style="edgeStyle=orthogonalEdgeStyle;rounded=0;orthogonalLoop=1;jettySize=auto;html=1;strokeWidth=3;" parent="WIyWlLk6GJQsqaUBKTNV-1" source="an1uXyHyDIEqWNbMvVYi-79" target="an1uXyHyDIEqWNbMvVYi-80" edge="1">
          <mxGeometry relative="1" as="geometry" />
        </mxCell>
        <mxCell id="an1uXyHyDIEqWNbMvVYi-78" value="" style="edgeStyle=orthogonalEdgeStyle;rounded=0;orthogonalLoop=1;jettySize=auto;html=1;strokeWidth=3;" parent="WIyWlLk6GJQsqaUBKTNV-1" source="an1uXyHyDIEqWNbMvVYi-79" target="an1uXyHyDIEqWNbMvVYi-82" edge="1">
          <mxGeometry relative="1" as="geometry" />
        </mxCell>
        <mxCell id="an1uXyHyDIEqWNbMvVYi-79" value="&lt;font size=&quot;3&quot;&gt;store to database&lt;br&gt;&lt;/font&gt;" style="rounded=1;whiteSpace=wrap;html=1;absoluteArcSize=1;arcSize=14;strokeWidth=2;labelBorderColor=none;" parent="WIyWlLk6GJQsqaUBKTNV-1" vertex="1">
          <mxGeometry x="1708.5" y="1865" width="190" height="100" as="geometry" />
        </mxCell>
        <mxCell id="an1uXyHyDIEqWNbMvVYi-80" value="&lt;p style=&quot;line-height: 120%; padding-bottom: 0px; margin-top: 0px; margin-bottom: 20px;&quot;&gt;&lt;font size=&quot;3&quot;&gt;messages &amp;amp; group chat msg&lt;br&gt;&lt;/font&gt;&lt;/p&gt;" style="strokeWidth=2;html=1;shape=mxgraph.flowchart.merge_or_storage;whiteSpace=wrap;labelBorderColor=none;spacing=22;verticalAlign=middle;horizontal=1;labelPosition=center;verticalLabelPosition=middle;align=center;" parent="WIyWlLk6GJQsqaUBKTNV-1" vertex="1">
          <mxGeometry x="1734.25" y="1740" width="138.5" height="80" as="geometry" />
        </mxCell>
        <mxCell id="an1uXyHyDIEqWNbMvVYi-81" value="" style="edgeStyle=orthogonalEdgeStyle;rounded=0;orthogonalLoop=1;jettySize=auto;html=1;strokeWidth=3;" parent="WIyWlLk6GJQsqaUBKTNV-1" source="an1uXyHyDIEqWNbMvVYi-82" target="an1uXyHyDIEqWNbMvVYi-86" edge="1">
          <mxGeometry relative="1" as="geometry" />
        </mxCell>
        <mxCell id="an1uXyHyDIEqWNbMvVYi-82" value="&lt;font size=&quot;3&quot;&gt;&lt;b&gt;server&lt;/b&gt;&lt;br&gt;publish message with pubnub&lt;br&gt;&lt;/font&gt;" style="rounded=1;whiteSpace=wrap;html=1;absoluteArcSize=1;arcSize=14;strokeWidth=2;labelBorderColor=none;" parent="WIyWlLk6GJQsqaUBKTNV-1" vertex="1">
          <mxGeometry x="1708.5" y="2025" width="190" height="100" as="geometry" />
        </mxCell>
        <mxCell id="an1uXyHyDIEqWNbMvVYi-83" value="" style="edgeStyle=orthogonalEdgeStyle;rounded=0;orthogonalLoop=1;jettySize=auto;html=1;strokeWidth=3;" parent="WIyWlLk6GJQsqaUBKTNV-1" source="an1uXyHyDIEqWNbMvVYi-84" target="an1uXyHyDIEqWNbMvVYi-89" edge="1">
          <mxGeometry relative="1" as="geometry" />
        </mxCell>
        <mxCell id="an1uXyHyDIEqWNbMvVYi-84" value="&lt;font size=&quot;3&quot;&gt;&lt;b&gt;client&lt;/b&gt;&lt;br&gt;display success message&lt;br&gt;&lt;/font&gt;" style="strokeWidth=2;html=1;shape=mxgraph.flowchart.display;whiteSpace=wrap;labelBorderColor=none;spacing=22;" parent="WIyWlLk6GJQsqaUBKTNV-1" vertex="1">
          <mxGeometry x="2248.5" y="2175" width="170" height="90" as="geometry" />
        </mxCell>
        <mxCell id="an1uXyHyDIEqWNbMvVYi-85" value="" style="edgeStyle=orthogonalEdgeStyle;rounded=0;orthogonalLoop=1;jettySize=auto;html=1;strokeWidth=3;" parent="WIyWlLk6GJQsqaUBKTNV-1" source="an1uXyHyDIEqWNbMvVYi-86" target="an1uXyHyDIEqWNbMvVYi-88" edge="1">
          <mxGeometry relative="1" as="geometry" />
        </mxCell>
        <mxCell id="an1uXyHyDIEqWNbMvVYi-86" value="&lt;font size=&quot;3&quot;&gt;&lt;b&gt;client&lt;/b&gt;&lt;br&gt;listen to published message&lt;br&gt;&lt;/font&gt;" style="rounded=1;whiteSpace=wrap;html=1;absoluteArcSize=1;arcSize=14;strokeWidth=2;labelBorderColor=none;" parent="WIyWlLk6GJQsqaUBKTNV-1" vertex="1">
          <mxGeometry x="1978.5" y="2025" width="190" height="100" as="geometry" />
        </mxCell>
        <mxCell id="an1uXyHyDIEqWNbMvVYi-87" value="" style="edgeStyle=orthogonalEdgeStyle;rounded=0;orthogonalLoop=1;jettySize=auto;html=1;strokeWidth=3;" parent="WIyWlLk6GJQsqaUBKTNV-1" source="an1uXyHyDIEqWNbMvVYi-88" target="an1uXyHyDIEqWNbMvVYi-84" edge="1">
          <mxGeometry relative="1" as="geometry" />
        </mxCell>
        <mxCell id="an1uXyHyDIEqWNbMvVYi-88" value="&lt;font size=&quot;3&quot;&gt;&lt;b&gt;client&lt;/b&gt;&lt;br&gt;add the message to group chat box&lt;br&gt;&lt;/font&gt;" style="strokeWidth=2;html=1;shape=mxgraph.flowchart.display;whiteSpace=wrap;labelBorderColor=none;spacing=22;" parent="WIyWlLk6GJQsqaUBKTNV-1" vertex="1">
          <mxGeometry x="2248.5" y="2030" width="170" height="90" as="geometry" />
        </mxCell>
        <mxCell id="an1uXyHyDIEqWNbMvVYi-89" value="&lt;font size=&quot;3&quot;&gt;END&lt;/font&gt;" style="strokeWidth=2;html=1;shape=mxgraph.flowchart.terminator;whiteSpace=wrap;" parent="WIyWlLk6GJQsqaUBKTNV-1" vertex="1">
          <mxGeometry x="2023.5" y="2190" width="100" height="60" as="geometry" />
        </mxCell>
        <mxCell id="an1uXyHyDIEqWNbMvVYi-90" value="&lt;font size=&quot;3&quot;&gt;&lt;b&gt;server&lt;/b&gt;&lt;br&gt;verify token&lt;br&gt;&lt;/font&gt;" style="rounded=1;whiteSpace=wrap;html=1;absoluteArcSize=1;arcSize=14;strokeWidth=2;labelBorderColor=none;" parent="WIyWlLk6GJQsqaUBKTNV-1" vertex="1">
          <mxGeometry x="1708.5" y="1615" width="190" height="100" as="geometry" />
        </mxCell>
        <mxCell id="an1uXyHyDIEqWNbMvVYi-91" value="" style="edgeStyle=orthogonalEdgeStyle;rounded=0;orthogonalLoop=1;jettySize=auto;html=1;strokeWidth=3;" parent="WIyWlLk6GJQsqaUBKTNV-1" source="an1uXyHyDIEqWNbMvVYi-93" target="an1uXyHyDIEqWNbMvVYi-71" edge="1">
          <mxGeometry relative="1" as="geometry" />
        </mxCell>
        <mxCell id="an1uXyHyDIEqWNbMvVYi-92" value="&lt;font style=&quot;font-size: 18px;&quot;&gt;YES&lt;/font&gt;" style="edgeLabel;html=1;align=center;verticalAlign=middle;resizable=0;points=[];" parent="an1uXyHyDIEqWNbMvVYi-91" vertex="1" connectable="0">
          <mxGeometry x="-0.3791" relative="1" as="geometry">
            <mxPoint as="offset" />
          </mxGeometry>
        </mxCell>
        <mxCell id="an1uXyHyDIEqWNbMvVYi-93" value="&lt;font size=&quot;3&quot;&gt;verified?&lt;/font&gt;" style="strokeWidth=2;html=1;shape=mxgraph.flowchart.decision;whiteSpace=wrap;" parent="WIyWlLk6GJQsqaUBKTNV-1" vertex="1">
          <mxGeometry x="2008.5" y="1505" width="120" height="120" as="geometry" />
        </mxCell>
        <mxCell id="an1uXyHyDIEqWNbMvVYi-94" style="edgeStyle=orthogonalEdgeStyle;rounded=0;orthogonalLoop=1;jettySize=auto;html=1;entryX=0;entryY=0.5;entryDx=0;entryDy=0;entryPerimeter=0;strokeWidth=3;" parent="WIyWlLk6GJQsqaUBKTNV-1" source="an1uXyHyDIEqWNbMvVYi-90" target="an1uXyHyDIEqWNbMvVYi-93" edge="1">
          <mxGeometry relative="1" as="geometry">
            <Array as="points">
              <mxPoint x="1948.5" y="1665" />
              <mxPoint x="1948.5" y="1565" />
            </Array>
          </mxGeometry>
        </mxCell>
        <mxCell id="an1uXyHyDIEqWNbMvVYi-95" style="edgeStyle=orthogonalEdgeStyle;rounded=0;orthogonalLoop=1;jettySize=auto;html=1;entryX=0;entryY=0.5;entryDx=0;entryDy=0;entryPerimeter=0;strokeWidth=3;" parent="WIyWlLk6GJQsqaUBKTNV-1" source="an1uXyHyDIEqWNbMvVYi-74" target="an1uXyHyDIEqWNbMvVYi-76" edge="1">
          <mxGeometry relative="1" as="geometry">
            <Array as="points">
              <mxPoint x="2198.5" y="1915" />
              <mxPoint x="2198.5" y="1734" />
            </Array>
          </mxGeometry>
        </mxCell>
        <mxCell id="an1uXyHyDIEqWNbMvVYi-96" value="&lt;font style=&quot;font-size: 18px;&quot;&gt;NO&lt;/font&gt;" style="edgeLabel;html=1;align=center;verticalAlign=middle;resizable=0;points=[];" parent="an1uXyHyDIEqWNbMvVYi-95" vertex="1" connectable="0">
          <mxGeometry x="-0.2894" y="-1" relative="1" as="geometry">
            <mxPoint x="-31" y="43" as="offset" />
          </mxGeometry>
        </mxCell>
        <mxCell id="an1uXyHyDIEqWNbMvVYi-97" style="edgeStyle=orthogonalEdgeStyle;rounded=0;orthogonalLoop=1;jettySize=auto;html=1;entryX=0;entryY=0.5;entryDx=0;entryDy=0;entryPerimeter=0;strokeWidth=3;" parent="WIyWlLk6GJQsqaUBKTNV-1" source="an1uXyHyDIEqWNbMvVYi-93" target="an1uXyHyDIEqWNbMvVYi-76" edge="1">
          <mxGeometry relative="1" as="geometry">
            <Array as="points">
              <mxPoint x="2198.5" y="1565" />
              <mxPoint x="2198.5" y="1734" />
            </Array>
          </mxGeometry>
        </mxCell>
        <mxCell id="an1uXyHyDIEqWNbMvVYi-98" value="&lt;font style=&quot;font-size: 18px;&quot;&gt;NO&lt;/font&gt;" style="edgeLabel;html=1;align=center;verticalAlign=middle;resizable=0;points=[];" parent="an1uXyHyDIEqWNbMvVYi-97" vertex="1" connectable="0">
          <mxGeometry x="-0.7743" y="-1" relative="1" as="geometry">
            <mxPoint y="-1" as="offset" />
          </mxGeometry>
        </mxCell>
        <mxCell id="an1uXyHyDIEqWNbMvVYi-104" value="&lt;div&gt;&lt;font style=&quot;font-size: 24px;&quot;&gt;&lt;u&gt;tech stack&lt;/u&gt;&lt;/font&gt;&lt;/div&gt;&lt;div&gt;&lt;font style=&quot;font-size: 24px;&quot;&gt;next js - tailwind - postgres - jwt - pubnub&lt;/font&gt;&lt;br&gt;&lt;/div&gt;" style="rounded=0;whiteSpace=wrap;html=1;" parent="WIyWlLk6GJQsqaUBKTNV-1" vertex="1">
          <mxGeometry x="1681" y="1000" width="771" height="70" as="geometry" />
        </mxCell>
        <mxCell id="an1uXyHyDIEqWNbMvVYi-105" value="&lt;div&gt;&lt;font style=&quot;font-size: 24px;&quot;&gt;&lt;u&gt;flow list&lt;br&gt;&lt;/u&gt;&lt;/font&gt;&lt;/div&gt;&lt;div&gt;&lt;font style=&quot;font-size: 24px;&quot;&gt;register - login - logout - search user - direct chat - create group &amp;amp; chat&lt;/font&gt;&lt;br&gt;&lt;/div&gt;" style="rounded=0;whiteSpace=wrap;html=1;" parent="WIyWlLk6GJQsqaUBKTNV-1" vertex="1">
          <mxGeometry x="2508" y="1000" width="771" height="70" as="geometry" />
        </mxCell>
        <mxCell id="3oeetsjyOTsIV8Lh90xN-0" value="Group Chat Join" style="shape=table;startSize=30;container=1;collapsible=0;childLayout=tableLayout;fontSize=18;" parent="WIyWlLk6GJQsqaUBKTNV-1" vertex="1">
          <mxGeometry x="2508" y="1110" width="770" height="1200" as="geometry" />
        </mxCell>
        <mxCell id="3oeetsjyOTsIV8Lh90xN-1" value="" style="shape=tableRow;horizontal=0;startSize=0;swimlaneHead=0;swimlaneBody=0;strokeColor=inherit;top=0;left=0;bottom=0;right=0;collapsible=0;dropTarget=0;fillColor=none;points=[[0,0.5],[1,0.5]];portConstraint=eastwest;" parent="3oeetsjyOTsIV8Lh90xN-0" vertex="1">
          <mxGeometry y="30" width="770" height="1170" as="geometry" />
        </mxCell>
        <mxCell id="3oeetsjyOTsIV8Lh90xN-2" value="" style="shape=partialRectangle;html=1;whiteSpace=wrap;connectable=0;strokeColor=inherit;overflow=hidden;fillColor=none;top=0;left=0;bottom=0;right=0;pointerEvents=1;" parent="3oeetsjyOTsIV8Lh90xN-1" vertex="1">
          <mxGeometry width="770" height="1170" as="geometry">
            <mxRectangle width="770" height="1170" as="alternateBounds" />
          </mxGeometry>
        </mxCell>
        <mxCell id="3oeetsjyOTsIV8Lh90xN-6" value="" style="edgeStyle=orthogonalEdgeStyle;rounded=0;orthogonalLoop=1;jettySize=auto;html=1;strokeWidth=3;" parent="WIyWlLk6GJQsqaUBKTNV-1" source="3oeetsjyOTsIV8Lh90xN-3" target="3oeetsjyOTsIV8Lh90xN-4" edge="1">
          <mxGeometry relative="1" as="geometry" />
        </mxCell>
        <mxCell id="3oeetsjyOTsIV8Lh90xN-3" value="&lt;font size=&quot;3&quot;&gt;START&lt;/font&gt;" style="strokeWidth=2;html=1;shape=mxgraph.flowchart.terminator;whiteSpace=wrap;" parent="WIyWlLk6GJQsqaUBKTNV-1" vertex="1">
          <mxGeometry x="2843" y="1169" width="100" height="60" as="geometry" />
        </mxCell>
        <mxCell id="3oeetsjyOTsIV8Lh90xN-8" value="" style="edgeStyle=orthogonalEdgeStyle;rounded=0;orthogonalLoop=1;jettySize=auto;html=1;strokeWidth=3;" parent="WIyWlLk6GJQsqaUBKTNV-1" source="3oeetsjyOTsIV8Lh90xN-4" target="3oeetsjyOTsIV8Lh90xN-7" edge="1">
          <mxGeometry relative="1" as="geometry" />
        </mxCell>
        <mxCell id="3oeetsjyOTsIV8Lh90xN-4" value="&lt;div style=&quot;padding-top: 0px; padding-left: 0px; padding-right: 0px;&quot; align=&quot;center&quot;&gt;&lt;font style=&quot;font-size: 16px;&quot;&gt;click the group invite link&lt;br&gt;&lt;/font&gt;&lt;/div&gt;" style="shape=parallelogram;strokeWidth=2;perimeter=parallelogramPerimeter;rounded=1;arcSize=12;size=0.23;fixedWidth=0;autosize=0;expand=1;whiteSpace=wrap;html=1;align=center;labelBorderColor=none;textShadow=0;labelBackgroundColor=none;spacingLeft=0;spacingRight=0;spacing=32;" parent="WIyWlLk6GJQsqaUBKTNV-1" vertex="1">
          <mxGeometry x="3060" y="1269" width="180" height="90" as="geometry" />
        </mxCell>
        <mxCell id="3oeetsjyOTsIV8Lh90xN-11" value="" style="edgeStyle=orthogonalEdgeStyle;rounded=0;orthogonalLoop=1;jettySize=auto;html=1;strokeWidth=3;" parent="WIyWlLk6GJQsqaUBKTNV-1" source="3oeetsjyOTsIV8Lh90xN-7" target="3oeetsjyOTsIV8Lh90xN-9" edge="1">
          <mxGeometry relative="1" as="geometry" />
        </mxCell>
        <mxCell id="3oeetsjyOTsIV8Lh90xN-7" value="&lt;font size=&quot;3&quot;&gt;send header (token)&lt;br&gt;&lt;/font&gt;" style="rounded=1;whiteSpace=wrap;html=1;absoluteArcSize=1;arcSize=14;strokeWidth=2;labelBorderColor=none;" parent="WIyWlLk6GJQsqaUBKTNV-1" vertex="1">
          <mxGeometry x="2800" y="1264" width="190" height="100" as="geometry" />
        </mxCell>
        <mxCell id="3oeetsjyOTsIV8Lh90xN-12" value="" style="edgeStyle=orthogonalEdgeStyle;rounded=0;orthogonalLoop=1;jettySize=auto;html=1;strokeWidth=3;" parent="WIyWlLk6GJQsqaUBKTNV-1" source="3oeetsjyOTsIV8Lh90xN-9" target="3oeetsjyOTsIV8Lh90xN-10" edge="1">
          <mxGeometry relative="1" as="geometry" />
        </mxCell>
        <mxCell id="3oeetsjyOTsIV8Lh90xN-9" value="&lt;font size=&quot;3&quot;&gt;&lt;b&gt;server&lt;/b&gt;&lt;br&gt;verify token&lt;br&gt;&lt;/font&gt;" style="rounded=1;whiteSpace=wrap;html=1;absoluteArcSize=1;arcSize=14;strokeWidth=2;labelBorderColor=none;" parent="WIyWlLk6GJQsqaUBKTNV-1" vertex="1">
          <mxGeometry x="2540" y="1265" width="190" height="100" as="geometry" />
        </mxCell>
        <mxCell id="3oeetsjyOTsIV8Lh90xN-15" value="" style="edgeStyle=orthogonalEdgeStyle;rounded=0;orthogonalLoop=1;jettySize=auto;html=1;strokeWidth=3;" parent="WIyWlLk6GJQsqaUBKTNV-1" source="3oeetsjyOTsIV8Lh90xN-10" target="3oeetsjyOTsIV8Lh90xN-14" edge="1">
          <mxGeometry relative="1" as="geometry" />
        </mxCell>
        <mxCell id="3oeetsjyOTsIV8Lh90xN-22" value="&lt;font style=&quot;font-size: 18px;&quot;&gt;YES&lt;/font&gt;" style="edgeLabel;html=1;align=center;verticalAlign=middle;resizable=0;points=[];" parent="3oeetsjyOTsIV8Lh90xN-15" vertex="1" connectable="0">
          <mxGeometry x="-0.2122" y="-2" relative="1" as="geometry">
            <mxPoint as="offset" />
          </mxGeometry>
        </mxCell>
        <mxCell id="3oeetsjyOTsIV8Lh90xN-10" value="&lt;font size=&quot;3&quot;&gt;verified?&lt;/font&gt;" style="strokeWidth=2;html=1;shape=mxgraph.flowchart.decision;whiteSpace=wrap;" parent="WIyWlLk6GJQsqaUBKTNV-1" vertex="1">
          <mxGeometry x="2575" y="1425" width="120" height="120" as="geometry" />
        </mxCell>
        <mxCell id="3oeetsjyOTsIV8Lh90xN-19" value="" style="edgeStyle=orthogonalEdgeStyle;rounded=0;orthogonalLoop=1;jettySize=auto;html=1;strokeWidth=3;" parent="WIyWlLk6GJQsqaUBKTNV-1" source="3oeetsjyOTsIV8Lh90xN-14" target="3oeetsjyOTsIV8Lh90xN-18" edge="1">
          <mxGeometry relative="1" as="geometry" />
        </mxCell>
        <mxCell id="3oeetsjyOTsIV8Lh90xN-14" value="&lt;font size=&quot;3&quot;&gt;get group chat (by invite_code)&lt;br&gt;&lt;/font&gt;" style="rounded=1;whiteSpace=wrap;html=1;absoluteArcSize=1;arcSize=14;strokeWidth=2;labelBorderColor=none;" parent="WIyWlLk6GJQsqaUBKTNV-1" vertex="1">
          <mxGeometry x="2540" y="1630" width="190" height="100" as="geometry" />
        </mxCell>
        <mxCell id="3oeetsjyOTsIV8Lh90xN-27" style="edgeStyle=orthogonalEdgeStyle;rounded=0;orthogonalLoop=1;jettySize=auto;html=1;entryX=0.5;entryY=1;entryDx=0;entryDy=0;strokeWidth=3;" parent="WIyWlLk6GJQsqaUBKTNV-1" source="3oeetsjyOTsIV8Lh90xN-16" target="3oeetsjyOTsIV8Lh90xN-4" edge="1">
          <mxGeometry relative="1" as="geometry" />
        </mxCell>
        <mxCell id="3oeetsjyOTsIV8Lh90xN-16" value="&lt;font size=&quot;3&quot;&gt;&lt;b&gt;client&lt;/b&gt;&lt;br&gt;display error message&lt;br&gt;&lt;/font&gt;" style="strokeWidth=2;html=1;shape=mxgraph.flowchart.display;whiteSpace=wrap;labelBorderColor=none;spacing=22;" parent="WIyWlLk6GJQsqaUBKTNV-1" vertex="1">
          <mxGeometry x="2808.5" y="1440" width="170" height="90" as="geometry" />
        </mxCell>
        <mxCell id="3oeetsjyOTsIV8Lh90xN-17" style="edgeStyle=orthogonalEdgeStyle;rounded=0;orthogonalLoop=1;jettySize=auto;html=1;entryX=0;entryY=0.5;entryDx=0;entryDy=0;entryPerimeter=0;strokeWidth=3;" parent="WIyWlLk6GJQsqaUBKTNV-1" source="3oeetsjyOTsIV8Lh90xN-10" target="3oeetsjyOTsIV8Lh90xN-16" edge="1">
          <mxGeometry relative="1" as="geometry" />
        </mxCell>
        <mxCell id="3oeetsjyOTsIV8Lh90xN-21" value="&lt;font style=&quot;font-size: 18px;&quot;&gt;NO&lt;/font&gt;" style="edgeLabel;html=1;align=center;verticalAlign=middle;resizable=0;points=[];" parent="3oeetsjyOTsIV8Lh90xN-17" vertex="1" connectable="0">
          <mxGeometry x="-0.2297" y="1" relative="1" as="geometry">
            <mxPoint x="-1" as="offset" />
          </mxGeometry>
        </mxCell>
        <mxCell id="3oeetsjyOTsIV8Lh90xN-20" value="" style="edgeStyle=orthogonalEdgeStyle;rounded=0;orthogonalLoop=1;jettySize=auto;html=1;strokeWidth=3;" parent="WIyWlLk6GJQsqaUBKTNV-1" source="3oeetsjyOTsIV8Lh90xN-18" target="3oeetsjyOTsIV8Lh90xN-16" edge="1">
          <mxGeometry relative="1" as="geometry" />
        </mxCell>
        <mxCell id="3oeetsjyOTsIV8Lh90xN-23" value="&lt;font style=&quot;font-size: 18px;&quot;&gt;NO&lt;/font&gt;" style="edgeLabel;html=1;align=center;verticalAlign=middle;resizable=0;points=[];" parent="3oeetsjyOTsIV8Lh90xN-20" vertex="1" connectable="0">
          <mxGeometry x="-0.059" relative="1" as="geometry">
            <mxPoint as="offset" />
          </mxGeometry>
        </mxCell>
        <mxCell id="3oeetsjyOTsIV8Lh90xN-25" value="" style="edgeStyle=orthogonalEdgeStyle;rounded=0;orthogonalLoop=1;jettySize=auto;html=1;strokeWidth=3;" parent="WIyWlLk6GJQsqaUBKTNV-1" source="3oeetsjyOTsIV8Lh90xN-18" target="3oeetsjyOTsIV8Lh90xN-24" edge="1">
          <mxGeometry relative="1" as="geometry" />
        </mxCell>
        <mxCell id="3oeetsjyOTsIV8Lh90xN-18" value="&lt;font size=&quot;3&quot;&gt;found?&lt;/font&gt;" style="strokeWidth=2;html=1;shape=mxgraph.flowchart.decision;whiteSpace=wrap;" parent="WIyWlLk6GJQsqaUBKTNV-1" vertex="1">
          <mxGeometry x="2833.5" y="1620" width="120" height="120" as="geometry" />
        </mxCell>
        <mxCell id="3oeetsjyOTsIV8Lh90xN-28" style="edgeStyle=orthogonalEdgeStyle;rounded=0;orthogonalLoop=1;jettySize=auto;html=1;strokeWidth=3;" parent="WIyWlLk6GJQsqaUBKTNV-1" source="3oeetsjyOTsIV8Lh90xN-24" target="3oeetsjyOTsIV8Lh90xN-26" edge="1">
          <mxGeometry relative="1" as="geometry" />
        </mxCell>
        <mxCell id="3oeetsjyOTsIV8Lh90xN-32" value="" style="edgeStyle=orthogonalEdgeStyle;rounded=0;orthogonalLoop=1;jettySize=auto;html=1;strokeWidth=3;" parent="WIyWlLk6GJQsqaUBKTNV-1" source="3oeetsjyOTsIV8Lh90xN-24" target="3oeetsjyOTsIV8Lh90xN-31" edge="1">
          <mxGeometry relative="1" as="geometry" />
        </mxCell>
        <mxCell id="3oeetsjyOTsIV8Lh90xN-24" value="&lt;font size=&quot;3&quot;&gt;add user to the group&lt;br&gt;&lt;/font&gt;" style="rounded=1;whiteSpace=wrap;html=1;absoluteArcSize=1;arcSize=14;strokeWidth=2;labelBorderColor=none;" parent="WIyWlLk6GJQsqaUBKTNV-1" vertex="1">
          <mxGeometry x="3030" y="1630" width="190" height="100" as="geometry" />
        </mxCell>
        <mxCell id="3oeetsjyOTsIV8Lh90xN-26" value="&lt;p style=&quot;line-height: 120%; padding-bottom: 0px; margin-top: 0px; margin-bottom: 20px;&quot;&gt;&lt;font size=&quot;3&quot;&gt;group chat user&lt;br&gt;&lt;/font&gt;&lt;/p&gt;" style="strokeWidth=2;html=1;shape=mxgraph.flowchart.merge_or_storage;whiteSpace=wrap;labelBorderColor=none;spacing=22;verticalAlign=middle;horizontal=1;labelPosition=center;verticalLabelPosition=middle;align=center;" parent="WIyWlLk6GJQsqaUBKTNV-1" vertex="1">
          <mxGeometry x="3055.5" y="1510" width="139" height="80" as="geometry" />
        </mxCell>
        <mxCell id="3oeetsjyOTsIV8Lh90xN-35" value="" style="edgeStyle=orthogonalEdgeStyle;rounded=0;orthogonalLoop=1;jettySize=auto;html=1;strokeWidth=3;" parent="WIyWlLk6GJQsqaUBKTNV-1" source="3oeetsjyOTsIV8Lh90xN-29" target="3oeetsjyOTsIV8Lh90xN-34" edge="1">
          <mxGeometry relative="1" as="geometry" />
        </mxCell>
        <mxCell id="3oeetsjyOTsIV8Lh90xN-29" value="&lt;font size=&quot;3&quot;&gt;&lt;b&gt;client&lt;/b&gt;&lt;br&gt;display success message&lt;br&gt;&lt;/font&gt;" style="strokeWidth=2;html=1;shape=mxgraph.flowchart.display;whiteSpace=wrap;labelBorderColor=none;spacing=22;" parent="WIyWlLk6GJQsqaUBKTNV-1" vertex="1">
          <mxGeometry x="2808.5" y="1794" width="170" height="90" as="geometry" />
        </mxCell>
        <mxCell id="3oeetsjyOTsIV8Lh90xN-33" value="" style="edgeStyle=orthogonalEdgeStyle;rounded=0;orthogonalLoop=1;jettySize=auto;html=1;strokeWidth=3;" parent="WIyWlLk6GJQsqaUBKTNV-1" source="3oeetsjyOTsIV8Lh90xN-31" target="3oeetsjyOTsIV8Lh90xN-29" edge="1">
          <mxGeometry relative="1" as="geometry" />
        </mxCell>
        <mxCell id="3oeetsjyOTsIV8Lh90xN-31" value="&lt;font size=&quot;3&quot;&gt;&lt;b&gt;client&lt;/b&gt;&lt;br&gt;add the group to group list&lt;br&gt;&lt;/font&gt;" style="strokeWidth=2;html=1;shape=mxgraph.flowchart.display;whiteSpace=wrap;labelBorderColor=none;spacing=22;" parent="WIyWlLk6GJQsqaUBKTNV-1" vertex="1">
          <mxGeometry x="3040" y="1794" width="170" height="90" as="geometry" />
        </mxCell>
        <mxCell id="3oeetsjyOTsIV8Lh90xN-34" value="&lt;font size=&quot;3&quot;&gt;END&lt;/font&gt;" style="strokeWidth=2;html=1;shape=mxgraph.flowchart.terminator;whiteSpace=wrap;" parent="WIyWlLk6GJQsqaUBKTNV-1" vertex="1">
          <mxGeometry x="2843" y="1945" width="100" height="60" as="geometry" />
        </mxCell>
        <mxCell id="cSEevBX1kMXl9HcPOIh7-0" value="History Messages" style="shape=table;startSize=30;container=1;collapsible=0;childLayout=tableLayout;fontSize=18;" vertex="1" parent="WIyWlLk6GJQsqaUBKTNV-1">
          <mxGeometry x="3337" y="600" width="770" height="840" as="geometry" />
        </mxCell>
        <mxCell id="cSEevBX1kMXl9HcPOIh7-1" value="" style="shape=tableRow;horizontal=0;startSize=0;swimlaneHead=0;swimlaneBody=0;strokeColor=inherit;top=0;left=0;bottom=0;right=0;collapsible=0;dropTarget=0;fillColor=none;points=[[0,0.5],[1,0.5]];portConstraint=eastwest;" vertex="1" parent="cSEevBX1kMXl9HcPOIh7-0">
          <mxGeometry y="30" width="770" height="810" as="geometry" />
        </mxCell>
        <mxCell id="cSEevBX1kMXl9HcPOIh7-2" value="" style="shape=partialRectangle;html=1;whiteSpace=wrap;connectable=0;strokeColor=inherit;overflow=hidden;fillColor=none;top=0;left=0;bottom=0;right=0;pointerEvents=1;" vertex="1" parent="cSEevBX1kMXl9HcPOIh7-1">
          <mxGeometry width="770" height="810" as="geometry">
            <mxRectangle width="770" height="810" as="alternateBounds" />
          </mxGeometry>
        </mxCell>
        <mxCell id="cSEevBX1kMXl9HcPOIh7-5" value="" style="edgeStyle=orthogonalEdgeStyle;rounded=0;orthogonalLoop=1;jettySize=auto;html=1;strokeWidth=3;" edge="1" parent="WIyWlLk6GJQsqaUBKTNV-1" source="cSEevBX1kMXl9HcPOIh7-3" target="cSEevBX1kMXl9HcPOIh7-4">
          <mxGeometry relative="1" as="geometry" />
        </mxCell>
        <mxCell id="cSEevBX1kMXl9HcPOIh7-3" value="&lt;font size=&quot;3&quot;&gt;START&lt;/font&gt;" style="strokeWidth=2;html=1;shape=mxgraph.flowchart.terminator;whiteSpace=wrap;" vertex="1" parent="WIyWlLk6GJQsqaUBKTNV-1">
          <mxGeometry x="3672" y="657.5" width="100" height="60" as="geometry" />
        </mxCell>
        <mxCell id="cSEevBX1kMXl9HcPOIh7-7" value="" style="edgeStyle=orthogonalEdgeStyle;rounded=0;orthogonalLoop=1;jettySize=auto;html=1;strokeWidth=3;" edge="1" parent="WIyWlLk6GJQsqaUBKTNV-1" source="cSEevBX1kMXl9HcPOIh7-4" target="cSEevBX1kMXl9HcPOIh7-6">
          <mxGeometry relative="1" as="geometry" />
        </mxCell>
        <mxCell id="cSEevBX1kMXl9HcPOIh7-4" value="&lt;div style=&quot;padding-top: 0px; padding-left: 0px; padding-right: 0px;&quot; align=&quot;center&quot;&gt;&lt;font style=&quot;font-size: 16px;&quot;&gt;click user / group to chat with&lt;br&gt;&lt;/font&gt;&lt;/div&gt;" style="shape=parallelogram;strokeWidth=2;perimeter=parallelogramPerimeter;rounded=1;arcSize=12;size=0.23;fixedWidth=0;autosize=0;expand=1;whiteSpace=wrap;html=1;align=center;labelBorderColor=none;textShadow=0;labelBackgroundColor=none;spacingLeft=0;spacingRight=0;spacing=32;" vertex="1" parent="WIyWlLk6GJQsqaUBKTNV-1">
          <mxGeometry x="3880" y="760" width="180" height="90" as="geometry" />
        </mxCell>
        <mxCell id="cSEevBX1kMXl9HcPOIh7-9" value="" style="edgeStyle=orthogonalEdgeStyle;rounded=0;orthogonalLoop=1;jettySize=auto;html=1;strokeWidth=3;" edge="1" parent="WIyWlLk6GJQsqaUBKTNV-1" source="cSEevBX1kMXl9HcPOIh7-6" target="cSEevBX1kMXl9HcPOIh7-8">
          <mxGeometry relative="1" as="geometry" />
        </mxCell>
        <mxCell id="cSEevBX1kMXl9HcPOIh7-6" value="&lt;font size=&quot;3&quot;&gt;&lt;b&gt;client&lt;/b&gt;&lt;br&gt;display loading&lt;br&gt;&lt;/font&gt;" style="strokeWidth=2;html=1;shape=mxgraph.flowchart.display;whiteSpace=wrap;labelBorderColor=none;spacing=22;" vertex="1" parent="WIyWlLk6GJQsqaUBKTNV-1">
          <mxGeometry x="3637" y="760" width="170" height="90" as="geometry" />
        </mxCell>
        <mxCell id="cSEevBX1kMXl9HcPOIh7-12" value="" style="edgeStyle=orthogonalEdgeStyle;rounded=0;orthogonalLoop=1;jettySize=auto;html=1;strokeWidth=3;" edge="1" parent="WIyWlLk6GJQsqaUBKTNV-1" source="cSEevBX1kMXl9HcPOIh7-8" target="cSEevBX1kMXl9HcPOIh7-11">
          <mxGeometry relative="1" as="geometry" />
        </mxCell>
        <mxCell id="cSEevBX1kMXl9HcPOIh7-8" value="&lt;font size=&quot;3&quot;&gt;send header (token) &amp;amp; payload&lt;br&gt;dm - &lt;/font&gt;&lt;font size=&quot;3&quot;&gt;user_from, user_to&lt;br&gt;group - group_id&lt;br&gt;&lt;/font&gt;" style="rounded=1;whiteSpace=wrap;html=1;absoluteArcSize=1;arcSize=14;strokeWidth=2;labelBorderColor=none;" vertex="1" parent="WIyWlLk6GJQsqaUBKTNV-1">
          <mxGeometry x="3380" y="755" width="190" height="100" as="geometry" />
        </mxCell>
        <mxCell id="cSEevBX1kMXl9HcPOIh7-15" value="" style="edgeStyle=orthogonalEdgeStyle;rounded=0;orthogonalLoop=1;jettySize=auto;html=1;strokeWidth=3;" edge="1" parent="WIyWlLk6GJQsqaUBKTNV-1" source="cSEevBX1kMXl9HcPOIh7-11" target="cSEevBX1kMXl9HcPOIh7-14">
          <mxGeometry relative="1" as="geometry" />
        </mxCell>
        <mxCell id="cSEevBX1kMXl9HcPOIh7-11" value="&lt;font size=&quot;3&quot;&gt;&lt;b&gt;server&lt;/b&gt;&lt;br&gt;filter the payload (num of inputs, typeof, length, regex)&lt;br&gt;&lt;/font&gt;" style="rounded=1;whiteSpace=wrap;html=1;absoluteArcSize=1;arcSize=14;strokeWidth=2;labelBorderColor=none;" vertex="1" parent="WIyWlLk6GJQsqaUBKTNV-1">
          <mxGeometry x="3380" y="920" width="190" height="100" as="geometry" />
        </mxCell>
        <mxCell id="cSEevBX1kMXl9HcPOIh7-17" value="" style="edgeStyle=orthogonalEdgeStyle;rounded=0;orthogonalLoop=1;jettySize=auto;html=1;strokeWidth=3;" edge="1" parent="WIyWlLk6GJQsqaUBKTNV-1" source="cSEevBX1kMXl9HcPOIh7-14" target="cSEevBX1kMXl9HcPOIh7-16">
          <mxGeometry relative="1" as="geometry" />
        </mxCell>
        <mxCell id="cSEevBX1kMXl9HcPOIh7-27" value="" style="edgeStyle=orthogonalEdgeStyle;rounded=0;orthogonalLoop=1;jettySize=auto;html=1;strokeWidth=3;" edge="1" parent="WIyWlLk6GJQsqaUBKTNV-1" source="cSEevBX1kMXl9HcPOIh7-14" target="cSEevBX1kMXl9HcPOIh7-26">
          <mxGeometry relative="1" as="geometry" />
        </mxCell>
        <mxCell id="cSEevBX1kMXl9HcPOIh7-14" value="&lt;font size=&quot;3&quot;&gt;filter success?&lt;/font&gt;" style="strokeWidth=2;html=1;shape=mxgraph.flowchart.decision;whiteSpace=wrap;" vertex="1" parent="WIyWlLk6GJQsqaUBKTNV-1">
          <mxGeometry x="3654" y="900" width="136" height="140" as="geometry" />
        </mxCell>
        <mxCell id="cSEevBX1kMXl9HcPOIh7-21" value="" style="edgeStyle=orthogonalEdgeStyle;rounded=0;orthogonalLoop=1;jettySize=auto;html=1;strokeWidth=3;" edge="1" parent="WIyWlLk6GJQsqaUBKTNV-1" source="cSEevBX1kMXl9HcPOIh7-16" target="cSEevBX1kMXl9HcPOIh7-20">
          <mxGeometry relative="1" as="geometry" />
        </mxCell>
        <mxCell id="cSEevBX1kMXl9HcPOIh7-16" value="&lt;font size=&quot;3&quot;&gt;get dm / group chat&lt;br&gt;dm by user_from, user_to&lt;br&gt;group by group_id&lt;br&gt;&lt;/font&gt;" style="rounded=1;whiteSpace=wrap;html=1;absoluteArcSize=1;arcSize=14;strokeWidth=2;labelBorderColor=none;" vertex="1" parent="WIyWlLk6GJQsqaUBKTNV-1">
          <mxGeometry x="3627" y="1110" width="190" height="100" as="geometry" />
        </mxCell>
        <mxCell id="cSEevBX1kMXl9HcPOIh7-19" value="" style="edgeStyle=orthogonalEdgeStyle;rounded=0;orthogonalLoop=1;jettySize=auto;html=1;strokeWidth=3;" edge="1" parent="WIyWlLk6GJQsqaUBKTNV-1" source="cSEevBX1kMXl9HcPOIh7-18" target="cSEevBX1kMXl9HcPOIh7-16">
          <mxGeometry relative="1" as="geometry" />
        </mxCell>
        <mxCell id="cSEevBX1kMXl9HcPOIh7-18" value="&lt;p style=&quot;line-height: 120%; padding-bottom: 0px; margin-top: 0px; margin-bottom: 20px;&quot;&gt;&lt;font size=&quot;3&quot;&gt;direct chat / group chat msg&lt;br&gt;&lt;/font&gt;&lt;/p&gt;" style="strokeWidth=2;html=1;shape=mxgraph.flowchart.merge_or_storage;whiteSpace=wrap;labelBorderColor=none;spacing=22;verticalAlign=middle;horizontal=1;labelPosition=center;verticalLabelPosition=middle;align=center;" vertex="1" parent="WIyWlLk6GJQsqaUBKTNV-1">
          <mxGeometry x="3431.5" y="1120" width="138.5" height="80" as="geometry" />
        </mxCell>
        <mxCell id="cSEevBX1kMXl9HcPOIh7-23" value="" style="edgeStyle=orthogonalEdgeStyle;rounded=0;orthogonalLoop=1;jettySize=auto;html=1;strokeWidth=3;" edge="1" parent="WIyWlLk6GJQsqaUBKTNV-1" source="cSEevBX1kMXl9HcPOIh7-20" target="cSEevBX1kMXl9HcPOIh7-22">
          <mxGeometry relative="1" as="geometry" />
        </mxCell>
        <mxCell id="cSEevBX1kMXl9HcPOIh7-20" value="&lt;font size=&quot;3&quot;&gt;&lt;b&gt;client&lt;/b&gt;&lt;br&gt;display retrieved messages&lt;br&gt;&lt;/font&gt;" style="strokeWidth=2;html=1;shape=mxgraph.flowchart.display;whiteSpace=wrap;labelBorderColor=none;spacing=22;" vertex="1" parent="WIyWlLk6GJQsqaUBKTNV-1">
          <mxGeometry x="3885" y="1115" width="170" height="90" as="geometry" />
        </mxCell>
        <mxCell id="cSEevBX1kMXl9HcPOIh7-25" value="" style="edgeStyle=orthogonalEdgeStyle;rounded=0;orthogonalLoop=1;jettySize=auto;html=1;strokeWidth=3;" edge="1" parent="WIyWlLk6GJQsqaUBKTNV-1" source="cSEevBX1kMXl9HcPOIh7-22" target="cSEevBX1kMXl9HcPOIh7-24">
          <mxGeometry relative="1" as="geometry" />
        </mxCell>
        <mxCell id="cSEevBX1kMXl9HcPOIh7-22" value="&lt;font size=&quot;3&quot;&gt;&lt;b&gt;client&lt;/b&gt;&lt;br&gt;display retrieved messages&lt;br&gt;&lt;/font&gt;" style="strokeWidth=2;html=1;shape=mxgraph.flowchart.display;whiteSpace=wrap;labelBorderColor=none;spacing=22;" vertex="1" parent="WIyWlLk6GJQsqaUBKTNV-1">
          <mxGeometry x="3885" y="1265" width="170" height="90" as="geometry" />
        </mxCell>
        <mxCell id="cSEevBX1kMXl9HcPOIh7-24" value="&lt;font size=&quot;3&quot;&gt;END&lt;/font&gt;" style="strokeWidth=2;html=1;shape=mxgraph.flowchart.terminator;whiteSpace=wrap;" vertex="1" parent="WIyWlLk6GJQsqaUBKTNV-1">
          <mxGeometry x="3672" y="1280" width="100" height="60" as="geometry" />
        </mxCell>
        <mxCell id="cSEevBX1kMXl9HcPOIh7-28" value="" style="edgeStyle=orthogonalEdgeStyle;rounded=0;orthogonalLoop=1;jettySize=auto;html=1;strokeWidth=3;" edge="1" parent="WIyWlLk6GJQsqaUBKTNV-1" source="cSEevBX1kMXl9HcPOIh7-26" target="cSEevBX1kMXl9HcPOIh7-4">
          <mxGeometry relative="1" as="geometry" />
        </mxCell>
        <mxCell id="cSEevBX1kMXl9HcPOIh7-26" value="&lt;font size=&quot;3&quot;&gt;&lt;b&gt;client&lt;/b&gt;&lt;br&gt;display error message&lt;br&gt;&lt;/font&gt;" style="strokeWidth=2;html=1;shape=mxgraph.flowchart.display;whiteSpace=wrap;labelBorderColor=none;spacing=22;" vertex="1" parent="WIyWlLk6GJQsqaUBKTNV-1">
          <mxGeometry x="3885" y="925" width="170" height="90" as="geometry" />
        </mxCell>
      </root>
    </mxGraphModel>
  </diagram>
</mxfile>
